<?xml version="1.0" encoding="UTF-8"?>
<svg version="1.1" xmlns="http://www.w3.org/2000/svg" width="222" height="218">
<path d="M0 0 C73.26 0 146.52 0 222 0 C222 71.94 222 143.88 222 218 C148.74 218 75.48 218 0 218 C0 146.06 0 74.12 0 0 Z " fill="#1A1E0A" transform="translate(0,0)"/>
<path d="M0 0 C0 0.66 0 1.32 0 2 C1.051875 2.2475 2.10375 2.495 3.1875 2.75 C6.87650977 3.80085338 9.01364206 5.56924353 12 8 C15.28113117 9.77727938 18.6281984 11.40248623 22 13 C22 13.66 22 14.32 22 15 C22.57975586 15.12238037 23.15951172 15.24476074 23.75683594 15.37084961 C26.05758777 16.0161519 27.82119497 16.88149067 29.890625 18.06640625 C30.59960938 18.46923828 31.30859375 18.87207031 32.0390625 19.28710938 C33.13347656 19.91842773 33.13347656 19.91842773 34.25 20.5625 C34.99507812 20.98724609 35.74015625 21.41199219 36.5078125 21.84960938 C38.34098961 22.89546042 40.17082677 23.94716192 42 25 C42.27950432 32.27650403 42.4717674 39.55162087 42.60424805 46.83227539 C42.65948139 49.30708532 42.73448836 51.78153763 42.82983398 54.25512695 C42.96370558 57.81811601 43.02572759 61.37635685 43.07421875 64.94140625 C43.13099289 66.04271378 43.18776703 67.1440213 43.2462616 68.27870178 C43.24886622 71.54074327 43.13890881 73.93711688 42 77 C38.65610049 80.05370618 35.08888459 82.08836262 31 84 C31.66868314 87.11332248 31.66868314 87.11332248 34.0625 88.1875 C34.701875 88.455625 35.34125 88.72375 36 89 C36 89.66 36 90.32 36 91 C38.97 91.495 38.97 91.495 42 92 C42 109.49 42 126.98 42 145 C40.35 145.33 38.7 145.66 37 146 C37 146.66 37 147.32 37 148 C30.25 152 30.25 152 28 152 C28 152.66 28 153.32 28 154 C25.36 154.66 22.72 155.32 20 156 C20 156.66 20 157.32 20 158 C19.28714844 158.38671875 18.57429688 158.7734375 17.83984375 159.171875 C11.34723836 162.69989405 11.34723836 162.69989405 4.9375 166.375 C2 168 2 168 0 168 C0 168.66 0 169.32 0 170 C-2.92879371 169.37240135 -5.36095629 168.41377341 -8 167 C-8 166.34 -8 165.68 -8 165 C-8.804375 164.95875 -9.60875 164.9175 -10.4375 164.875 C-14.694798 163.82934786 -17.42310065 161.90844582 -20.94921875 159.375 C-23.04736285 157.83662546 -23.04736285 157.83662546 -26 157 C-26 156.34 -26 155.68 -26 155 C-26.845625 154.731875 -27.69125 154.46375 -28.5625 154.1875 C-32.13854067 152.9521405 -35.53860908 151.523012 -39 150 C-39 149.34 -39 148.68 -39 148 C-40.32 147.67 -41.64 147.34 -43 147 C-43 146.34 -43 145.68 -43 145 C-43.99 145 -44.98 145 -46 145 C-46 139.39 -46 133.78 -46 128 C-48.7225 129.7634375 -48.7225 129.7634375 -51.5 131.5625 C-58.28214286 135.56428571 -58.28214286 135.56428571 -62.75 134.9375 C-63.8225 134.628125 -64.895 134.31875 -66 134 C-66 133.34 -66 132.68 -66 132 C-67.32 131.67 -68.64 131.34 -70 131 C-70 130.34 -70 129.68 -70 129 C-71.36125 128.8453125 -71.36125 128.8453125 -72.75 128.6875 C-76.16193148 127.96574526 -77.30543556 127.06922213 -80 125 C-81.44245345 124.25986471 -82.90252411 123.55344452 -84.375 122.875 C-85.6122583 122.22422485 -85.6122583 122.22422485 -86.87451172 121.56030273 C-90.02239664 119.91677906 -90.02239664 119.91677906 -93.58105469 118.68432617 C-97.83659571 116.88152782 -101.381253 114.90893312 -104 111 C-106.4079327 102.48574741 -105.30615985 93.16470994 -104.875 84.4375 C-104.80472444 81.97348341 -104.74085483 79.50927525 -104.68359375 77.04492188 C-104.52980542 71.02574993 -104.2960678 65.01376336 -104 59 C-102.02 58.505 -102.02 58.505 -100 58 C-100 57.34 -100 56.68 -100 56 C-97.44572281 54.31732451 -94.90148454 52.76581335 -92.25 51.25 C-91.0899646 50.57674683 -91.0899646 50.57674683 -89.90649414 49.88989258 C-84.56330517 46.81710207 -79.13997696 43.97966795 -73.578125 41.3203125 C-71.12019982 40.06155688 -68.94809324 38.64146398 -66.6875 37.0625 C-63.94201512 35.32613584 -63.01850968 35.00102832 -59.625 34.8125 C-54.53284543 36.4806196 -50.5052884 39.09933487 -46 42 C-46 36.39 -46 30.78 -46 25 C-45.67 25 -45.34 25 -45 25 C-44.505 30.94 -44.505 30.94 -44 37 C-43.34 36.67 -42.68 36.34 -42 36 C-42 36.99 -42 37.98 -42 39 C-41.34 39 -40.68 39 -40 39 C-40 39.66 -40 40.32 -40 41 C-39.34 41 -38.68 41 -38 41 C-38 39.35 -38 37.7 -38 36 C-37.67 36 -37.34 36 -37 36 C-37 57.45 -37 78.9 -37 101 C-44 105 -44 105 -46 105 C-46 98.07 -46 91.14 -46 84 C-48.64 84.99 -51.28 85.98 -54 87 C-54 97.89 -54 108.78 -54 120 C-52.02 119.01 -50.04 118.02 -48 117 C-47.34 117 -46.68 117 -46 117 C-46 116.34 -46 115.68 -46 115 C-43.525 114.505 -43.525 114.505 -41 114 C-41 113.34 -41 112.68 -41 112 C-40.28457031 111.6596875 -39.56914063 111.319375 -38.83203125 110.96875 C-29.90434184 106.62617404 -21.53505804 101.57923446 -13.203125 96.19140625 C-8.38763844 93.14889429 -4.75838834 91.11996642 1 91 C1.66 91.33 2.32 91.66 3 92 C3 92.66 3 93.32 3 94 C4.65 94.33 6.3 94.66 8 95 C8 95.99 8 96.98 8 98 C6.5459375 98.5878125 6.5459375 98.5878125 5.0625 99.1875 C1.17306794 100.83852422 -2.43583453 102.88424769 -6.08203125 105.01171875 C-8 106 -8 106 -10 106 C-9.505 106.45375 -9.01 106.9075 -8.5 107.375 C-7 109 -7 109 -7 111 C1.00660747 111.98776652 5.70220583 108.73094011 12.3125 104.5 C14.26346491 103.27571543 16.21774489 102.05669287 18.17578125 100.84375 C19.03083252 100.29912109 19.88588379 99.75449219 20.7668457 99.19335938 C23 98 23 98 26 98 C26 97.01 26 96.02 26 95 C25.29875 94.731875 24.5975 94.46375 23.875 94.1875 C9.07407407 88.07407407 9.07407407 88.07407407 4 83 C6.97851562 83.09765625 6.97851562 83.09765625 9.95703125 83.1953125 C12.31359719 83.13254462 12.31359719 83.13254462 15 81 C14.67 80.01 14.34 79.02 14 78 C16.64 78 19.28 78 22 78 C22 77.34 22 76.68 22 76 C23.32 75.67 24.64 75.34 26 75 C26 74.34 26 73.68 26 73 C28.97 72.505 28.97 72.505 32 72 C32 60.78 32 49.56 32 38 C22.46066407 43.43283088 22.46066407 43.43283088 13 49 C10.6875 49.6875 10.6875 49.6875 9 50 C8.67 49.34 8.34 48.68 8 48 C7.34 48 6.68 48 6 48 C6 46.68 6 45.36 6 44 C8.87354245 41.82542733 10.36436591 41 14 41 C14 40.01 14 39.02 14 38 C14.99 37.67 15.98 37.34 17 37 C17.0825 36.401875 17.165 35.80375 17.25 35.1875 C18.50015911 31.54120259 21.66214012 30.69927412 25 29 C19.77191609 24.46899394 13.59568373 20.19856124 7 18 C7 17.34 7 16.68 7 16 C5.35 15.67 3.7 15.34 2 15 C2 14.34 2 13.68 2 13 C-4.10813099 13.51763822 -7.59671911 14.48123518 -12.578125 18.16796875 C-24.40423784 26.82447027 -24.40423784 26.82447027 -31 26 C-31.47583227 23.30361716 -31.40183058 21.60832685 -29.875 19.296875 C-28.33426975 17.57960274 -26.95362856 16.23201801 -25 15 C-21.625 15.125 -21.625 15.125 -19 16 C-19.103125 15.0925 -19.20625 14.185 -19.3125 13.25 C-19 10 -19 10 -17.1875 8 C-4.4375 0 -4.4375 0 0 0 Z " fill="#D6F450" transform="translate(138,21)"/>
<path d="M0 0 C0 1.65 0 3.3 0 5 C-0.886875 4.896875 -1.77375 4.79375 -2.6875 4.6875 C-6.15349314 4.71532378 -6.15349314 4.71532378 -8.8125 7.1875 C-10.9882377 9.98487704 -11.70197895 11.52308771 -12 15 C-5.31935249 13.4364442 0.52372729 10.61056001 6.0234375 6.48046875 C9.96948289 3.52483396 13.97420563 0.8311838 19 1.25 C19.66 1.4975 20.32 1.745 21 2 C21 2.66 21 3.32 21 4 C23.475 4.495 23.475 4.495 26 5 C26 5.66 26 6.32 26 7 C27.01126953 7.10634766 27.01126953 7.10634766 28.04296875 7.21484375 C32.00777107 8.26758519 34.93352184 10.29012849 38.3125 12.5625 C39.28026367 13.19961914 39.28026367 13.19961914 40.26757812 13.84960938 C41.84973954 14.89266393 43.42552501 15.94537872 45 17 C42.4587228 19.62669829 40.38005327 21.55140574 37 23 C37 24.32 37 25.64 37 27 C35.68 27 34.36 27 33 27 C33 27.99 33 28.98 33 30 C30.11165997 32.10770759 28.61537605 33 25 33 C25 34.32 25 35.64 25 37 C25.99 36.67 26.98 36.34 28 36 C28.33 36.66 28.66 37.32 29 38 C34.41690988 35.85580651 39.12109761 33.16718663 44 30 C48.75862069 27 48.75862069 27 51 27 C51 38.22 51 49.44 51 61 C49.02 61.33 47.04 61.66 45 62 C45 62.66 45 63.32 45 64 C43.68 64.33 42.36 64.66 41 65 C41 65.66 41 66.32 41 67 C37.71303767 67.79953138 36.28976808 68.09658936 33 67 C33.95865509 69.33075929 33.95865509 69.33075929 37 71 C32.82262526 72.59138085 29.46839215 73.21278058 25 73 C31.64443293 76.70775764 38.31587248 80.36433437 45 84 C45 84.99 45 85.98 45 87 C44.28457031 87.3403125 43.56914062 87.680625 42.83203125 88.03125 C37.65237747 90.55071937 32.69761795 93.14118796 27.90966797 96.3359375 C19.95732361 101.61410427 19.95732361 101.61410427 15.1875 101 C14.135625 100.67 13.08375 100.34 12 100 C12 99.34 12 98.68 12 98 C11.01 97.67 10.02 97.34 9 97 C9 96.34 9 95.68 9 95 C11.24416299 93.65590238 13.49442796 92.32470104 15.75 91 C16.38421875 90.6184375 17.0184375 90.236875 17.671875 89.84375 C21.13971476 87.82084348 22.89348254 87 27 87 C27 86.01 27 85.02 27 84 C25.35 83.67 23.7 83.34 22 83 C22 82.34 22 81.68 22 81 C13.86997501 81.23323842 8.79938116 83.95812543 2 88.25 C0.12562873 89.40206521 -1.74936439 90.55311936 -3.625 91.703125 C-4.52605469 92.25935547 -5.42710938 92.81558594 -6.35546875 93.38867188 C-17.19244534 99.99170414 -17.19244534 99.99170414 -22 101 C-22 101.66 -22 102.32 -22 103 C-24.475 103.495 -24.475 103.495 -27 104 C-27 104.66 -27 105.32 -27 106 C-29.97 107.32 -32.94 108.64 -36 110 C-36 98.78 -36 87.56 -36 76 C-29 73 -29 73 -27 73 C-27 79.93 -27 86.86 -27 94 C-24.69 92.68 -22.38 91.36 -20 90 C-19.34 90 -18.68 90 -18 90 C-18.33 70.2 -18.66 50.4 -19 30 C-19.66 30 -20.32 30 -21 30 C-21 29.34 -21 28.68 -21 28 C-21.66 28 -22.32 28 -23 28 C-23.33 27.34 -23.66 26.68 -24 26 C-24.33 27.98 -24.66 29.96 -25 32 C-25.33 32 -25.66 32 -26 32 C-26.18964787 29.10109685 -26.32785971 26.21461131 -26.4375 23.3125 C-26.49615234 22.49587891 -26.55480469 21.67925781 -26.61523438 20.83789062 C-26.7840625 14.88066951 -26.7840625 14.88066951 -24.51391602 12.33081055 C-21.18507475 9.89006861 -18.18143229 8.38013021 -14 8 C-14 7.34 -14 6.68 -14 6 C-12.04414675 4.99515796 -10.08523763 3.99626195 -8.125 3 C-7.03445312 2.443125 -5.94390625 1.88625 -4.8203125 1.3125 C-2 0 -2 0 0 0 Z " fill="#D8F552" transform="translate(119,32)"/>
<path d="M0 0 C0 0.66 0 1.32 0 2 C1.051875 2.2475 2.10375 2.495 3.1875 2.75 C6.87650977 3.80085338 9.01364206 5.56924353 12 8 C15.28113117 9.77727938 18.6281984 11.40248623 22 13 C22 13.66 22 14.32 22 15 C22.57975586 15.12238037 23.15951172 15.24476074 23.75683594 15.37084961 C26.05758777 16.0161519 27.82119497 16.88149067 29.890625 18.06640625 C30.59960938 18.46923828 31.30859375 18.87207031 32.0390625 19.28710938 C32.76867187 19.70798828 33.49828125 20.12886719 34.25 20.5625 C34.99507813 20.98724609 35.74015625 21.41199219 36.5078125 21.84960938 C38.34098961 22.89546042 40.17082677 23.94716192 42 25 C42.27950432 32.27650403 42.4717674 39.55162087 42.60424805 46.83227539 C42.65948139 49.30708532 42.73448836 51.78153763 42.82983398 54.25512695 C42.96370558 57.81811601 43.02572759 61.37635685 43.07421875 64.94140625 C43.13099289 66.04271378 43.18776703 67.1440213 43.2462616 68.27870178 C43.24886622 71.54074327 43.13890881 73.93711688 42 77 C38.65610049 80.05370618 35.08888459 82.08836262 31 84 C31.66868314 87.11332248 31.66868314 87.11332248 34.0625 88.1875 C34.701875 88.455625 35.34125 88.72375 36 89 C36 89.66 36 90.32 36 91 C37.98 91.33 39.96 91.66 42 92 C42 109.49 42 126.98 42 145 C40.35 145.33 38.7 145.66 37 146 C37 146.66 37 147.32 37 148 C30.25 152 30.25 152 28 152 C28 152.66 28 153.32 28 154 C24.04 154.99 24.04 154.99 20 156 C20 156.66 20 157.32 20 158 C19.28714844 158.38671875 18.57429688 158.7734375 17.83984375 159.171875 C11.34723836 162.69989405 11.34723836 162.69989405 4.9375 166.375 C2 168 2 168 0 168 C0 168.66 0 169.32 0 170 C-2.92879371 169.37240135 -5.36095629 168.41377341 -8 167 C-8 166.34 -8 165.68 -8 165 C-8.804375 164.95875 -9.60875 164.9175 -10.4375 164.875 C-14.694798 163.82934786 -17.42310065 161.90844582 -20.94921875 159.375 C-23.04736285 157.83662546 -23.04736285 157.83662546 -26 157 C-26 156.34 -26 155.68 -26 155 C-26.845625 154.731875 -27.69125 154.46375 -28.5625 154.1875 C-32.13854067 152.9521405 -35.53860908 151.523012 -39 150 C-38.505 149.01 -38.505 149.01 -38 148 C-36.68 148.33 -35.36 148.66 -34 149 C-34 146.03 -34 143.06 -34 140 C-29.71 141.98 -25.42 143.96 -21 146 C-21 146.66 -21 147.32 -21 148 C-19.63875 148.1546875 -19.63875 148.1546875 -18.25 148.3125 C-14.96928156 149.00649813 -13.39110905 149.70085668 -11 152 C-11 152.66 -11 153.32 -11 154 C-9.35 154.33 -7.7 154.66 -6 155 C-6.01571045 153.45675049 -6.01571045 153.45675049 -6.03173828 151.88232422 C-6.06807599 148.04691072 -6.09095038 144.2115123 -6.10986328 140.37597656 C-6.11988957 138.71937497 -6.13351406 137.06279093 -6.15087891 135.40625 C-6.17527621 133.01818495 -6.18651694 130.63035492 -6.1953125 128.2421875 C-6.20563507 127.50757294 -6.21595764 126.77295837 -6.22659302 126.01608276 C-6.2275374 121.63821908 -5.76237841 118.02551214 -4 114 C-2.125 113.375 -2.125 113.375 0 113 C0.50660156 112.45085937 1.01320312 111.90171875 1.53515625 111.3359375 C5.12927069 107.92978784 9.27950409 105.69834425 13.5625 103.25 C14.42552734 102.74339844 15.28855469 102.23679687 16.17773438 101.71484375 C17.00724609 101.23660156 17.83675781 100.75835937 18.69140625 100.265625 C19.44623291 99.83024414 20.20105957 99.39486328 20.97875977 98.94628906 C23 98 23 98 26 98 C26 97.01 26 96.02 26 95 C25.29875 94.731875 24.5975 94.46375 23.875 94.1875 C9.07407407 88.07407407 9.07407407 88.07407407 4 83 C6.97851562 83.09765625 6.97851562 83.09765625 9.95703125 83.1953125 C12.31359719 83.13254462 12.31359719 83.13254462 15 81 C14.67 80.01 14.34 79.02 14 78 C16.64 78 19.28 78 22 78 C22 77.34 22 76.68 22 76 C23.98 75.505 23.98 75.505 26 75 C26 74.34 26 73.68 26 73 C27.98 72.67 29.96 72.34 32 72 C32 60.78 32 49.56 32 38 C22.46066407 43.43283088 22.46066407 43.43283088 13 49 C10.6875 49.6875 10.6875 49.6875 9 50 C8.67 49.34 8.34 48.68 8 48 C7.34 48 6.68 48 6 48 C6 46.68 6 45.36 6 44 C8.87354245 41.82542733 10.36436591 41 14 41 C14 40.01 14 39.02 14 38 C14.99 37.67 15.98 37.34 17 37 C17.0825 36.401875 17.165 35.80375 17.25 35.1875 C18.50015911 31.54120259 21.66214012 30.69927412 25 29 C19.77191609 24.46899394 13.59568373 20.19856124 7 18 C7 17.34 7 16.68 7 16 C4.525 15.505 4.525 15.505 2 15 C2 14.34 2 13.68 2 13 C-4.10813099 13.51763822 -7.59671911 14.48123518 -12.578125 18.16796875 C-24.40423784 26.82447027 -24.40423784 26.82447027 -31 26 C-31.47583227 23.30361716 -31.40183058 21.60832685 -29.875 19.296875 C-28.33426975 17.57960274 -26.95362856 16.23201801 -25 15 C-21.625 15.125 -21.625 15.125 -19 16 C-19.103125 15.0925 -19.20625 14.185 -19.3125 13.25 C-19 10 -19 10 -17.1875 8 C-4.4375 0 -4.4375 0 0 0 Z " fill="#DAF551" transform="translate(138,21)"/>
<path d="M0 0 C0.33 0 0.66 0 1 0 C1.495 5.94 1.495 5.94 2 12 C2.66 11.67 3.32 11.34 4 11 C4 11.99 4 12.98 4 14 C4.66 14 5.32 14 6 14 C6 14.66 6 15.32 6 16 C6.66 16 7.32 16 8 16 C8 14.35 8 12.7 8 11 C8.33 11 8.66 11 9 11 C9 32.45 9 53.9 9 76 C2 80 2 80 0 80 C0 73.07 0 66.14 0 59 C-2.97 60.32 -5.94 61.64 -9 63 C-9.33 73.89 -9.66 84.78 -10 96 C-10.66 96 -11.32 96 -12 96 C-12.04944066 91.35524041 -12.08573863 86.71063404 -12.10986328 82.06567383 C-12.11992041 80.48556856 -12.13356785 78.9054819 -12.15087891 77.32543945 C-12.17514022 75.0541525 -12.18648582 72.78311164 -12.1953125 70.51171875 C-12.20563507 69.80536789 -12.21595764 69.09901703 -12.22659302 68.3712616 C-12.22743775 64.67802208 -12.10720523 63.16080784 -10 60 C-9.34 60 -8.68 60 -8 60 C-8 59.34 -8 58.68 -8 58 C-8.99 58 -9.98 58 -11 58 C-11.495 58.99 -11.495 58.99 -12 60 C-12.99 59.505 -12.99 59.505 -14 59 C-14 58.34 -14 57.68 -14 57 C-11.525 56.505 -11.525 56.505 -9 56 C-9.1546875 54.88625 -9.1546875 54.88625 -9.3125 53.75 C-9 51 -9 51 -6.6875 48.75 C-4 47 -4 47 -1 46 C-1 40.39 -1 34.78 -1 29 C-2.98 28.01 -4.96 27.02 -7 26 C-7 25.34 -7 24.68 -7 24 C-8.65 23.67 -10.3 23.34 -12 23 C-12 22.34 -12 21.68 -12 21 C-17.0800102 22.48199986 -21.37664349 24.70198137 -25.9375 27.3125 C-26.61490234 27.69083984 -27.29230469 28.06917969 -27.99023438 28.45898438 C-32.54820984 31.04169147 -36.7820751 33.89292364 -41 37 C-38.94766315 39.2477975 -37.99332739 40.0022242 -35 41 C-35 41.66 -35 42.32 -35 43 C-33.68 43.66 -32.36 44.32 -31 45 C-31.99 45.495 -31.99 45.495 -33 46 C-31.515 46.495 -31.515 46.495 -30 47 C-30.625 49.4375 -30.625 49.4375 -32 52 C-34.5 53.1875 -34.5 53.1875 -38 53 C-40.52929688 51.66918945 -40.52929688 51.66918945 -43.21875 49.98828125 C-44.56356445 49.15550659 -44.56356445 49.15550659 -45.93554688 48.3059082 C-46.61681641 47.8749585 -47.29808594 47.44400879 -48 47 C-49.81461811 65.28938492 -49.81461811 65.28938492 -45.56103516 82.4140625 C-41.6567119 86.14280294 -37.13190568 87.62039774 -32 89 C-30.32691823 89.65039959 -28.65697379 90.30959426 -27 91 C-27 91.66 -27 92.32 -27 93 C-24.03 93.495 -24.03 93.495 -21 94 C-21 83.44 -21 72.88 -21 62 C-20.34 62 -19.68 62 -19 62 C-19 73.22 -19 84.44 -19 96 C-28 94 -28 94 -31 93 C-31 92.34 -31 91.68 -31 91 C-32.98 90.67 -34.96 90.34 -37 90 C-37.79953138 93.28696233 -38.09658936 94.71023192 -37 98 C-38.66956893 97.3406353 -40.33525495 96.67145077 -42 96 C-42.93875977 95.66660614 -42.93875977 95.66660614 -43.89648438 95.32647705 C-49.37598127 93.2662994 -54.46668265 90.81060541 -58 86 C-60.69903587 77.525787 -59.49532379 68.11676398 -59 59.375 C-58.91967176 56.91559548 -58.84668014 54.4559397 -58.78125 51.99609375 C-58.60560823 45.99188301 -58.33861697 39.99711005 -58 34 C-56.02 33.505 -56.02 33.505 -54 33 C-54 32.34 -54 31.68 -54 31 C-51.44572281 29.31732451 -48.90148454 27.76581335 -46.25 26.25 C-45.47664307 25.80116455 -44.70328613 25.3523291 -43.90649414 24.88989258 C-38.56330517 21.81710207 -33.13997696 18.97966795 -27.578125 16.3203125 C-25.12019982 15.06155688 -22.94809324 13.64146398 -20.6875 12.0625 C-17.94201512 10.32613584 -17.01850968 10.00102832 -13.625 9.8125 C-8.53284543 11.4806196 -4.5052884 14.09933487 0 17 C0 11.39 0 5.78 0 0 Z " fill="#D8F24F" transform="translate(92,46)"/>
<path d="M0 0 C1.32 0.33 2.64 0.66 4 1 C4 1.66 4 2.32 4 3 C5.0209375 3.4021875 5.0209375 3.4021875 6.0625 3.8125 C9.39710809 5.16053306 12.69743237 6.57536298 16 8 C16 8.66 16 9.32 16 10 C18.475 10.495 18.475 10.495 21 11 C21 11.66 21 12.32 21 13 C21.78375 13.144375 22.5675 13.28875 23.375 13.4375 C26 14 26 14 28 15 C28 18.96 28 22.92 28 27 C23.38 24.69 18.76 22.38 14 20 C14 19.34 14 18.68 14 18 C12.02 17.34 10.04 16.68 8 16 C8.33 19.63 8.66 23.26 9 27 C9.99 27.33 10.98 27.66 12 28 C12 28.66 12 29.32 12 30 C12.639375 30.226875 13.27875 30.45375 13.9375 30.6875 C18.13320261 32.48565826 22.03900556 34.73904021 26 37 C26 37.66 26 38.32 26 39 C26.94875 39.144375 27.8975 39.28875 28.875 39.4375 C32 40 32 40 34 41 C34 41.66 34 42.32 34 43 C35.65 43.33 37.3 43.66 39 44 C39 44.66 39 45.32 39 46 C39.804375 46.226875 40.60875 46.45375 41.4375 46.6875 C45.92190102 48.33964774 49.87452261 50.60893612 54 53 C55.35395339 53.77120788 56.70809765 54.54208085 58.0625 55.3125 C59.031875 55.869375 60.00125 56.42625 61 57 C61 57.99 61 58.98 61 60 C60.28457031 60.3403125 59.56914062 60.680625 58.83203125 61.03125 C53.65237747 63.55071937 48.69761795 66.14118796 43.90966797 69.3359375 C35.95732361 74.61410427 35.95732361 74.61410427 31.1875 74 C30.135625 73.67 29.08375 73.34 28 73 C28 72.34 28 71.68 28 71 C27.01 70.67 26.02 70.34 25 70 C25 69.34 25 68.68 25 68 C27.24416299 66.65590238 29.49442796 65.32470104 31.75 64 C32.38421875 63.6184375 33.0184375 63.236875 33.671875 62.84375 C37.13971476 60.82084348 38.89348254 60 43 60 C43 59.01 43 58.02 43 57 C41.35 56.67 39.7 56.34 38 56 C38 55.34 38 54.68 38 54 C29.86997501 54.23323842 24.79938116 56.95812543 18 61.25 C16.12562873 62.40206521 14.25063561 63.55311936 12.375 64.703125 C11.47394531 65.25935547 10.57289062 65.81558594 9.64453125 66.38867188 C-1.19244534 72.99170414 -1.19244534 72.99170414 -6 74 C-6 74.66 -6 75.32 -6 76 C-8.475 76.495 -8.475 76.495 -11 77 C-11 77.66 -11 78.32 -11 79 C-13.97 80.32 -16.94 81.64 -20 83 C-20 71.78 -20 60.56 -20 49 C-13 46 -13 46 -11 46 C-11 52.93 -11 59.86 -11 67 C-8.69 65.68 -6.38 64.36 -4 63 C-2.68 63 -1.36 63 0 63 C0 42.21 0 21.42 0 0 Z " fill="#141605" transform="translate(103,59)"/>
<path d="M0 0 C1.32 0.33 2.64 0.66 4 1 C4 18.49 4 35.98 4 54 C2.35 54.33 0.7 54.66 -1 55 C-1 55.66 -1 56.32 -1 57 C-7.75 61 -7.75 61 -10 61 C-10 61.66 -10 62.32 -10 63 C-13.96 63.99 -13.96 63.99 -18 65 C-18 65.66 -18 66.32 -18 67 C-18.71285156 67.38671875 -19.42570312 67.7734375 -20.16015625 68.171875 C-26.65276164 71.69989405 -26.65276164 71.69989405 -33.0625 75.375 C-36 77 -36 77 -38 77 C-38 77.66 -38 78.32 -38 79 C-40.92879371 78.37240135 -43.36095629 77.41377341 -46 76 C-46 75.34 -46 74.68 -46 74 C-46.804375 73.95875 -47.60875 73.9175 -48.4375 73.875 C-52.694798 72.82934786 -55.42310065 70.90844582 -58.94921875 68.375 C-61.04736285 66.83662546 -61.04736285 66.83662546 -64 66 C-64 65.34 -64 64.68 -64 64 C-64.845625 63.731875 -65.69125 63.46375 -66.5625 63.1875 C-70.13854067 61.9521405 -73.53860908 60.523012 -77 59 C-76.67 58.34 -76.34 57.68 -76 57 C-74.68 57.33 -73.36 57.66 -72 58 C-72 55.03 -72 52.06 -72 49 C-67.71 50.98 -63.42 52.96 -59 55 C-59 55.66 -59 56.32 -59 57 C-57.63875 57.1546875 -57.63875 57.1546875 -56.25 57.3125 C-52.96928156 58.00649813 -51.39110905 58.70085668 -49 61 C-49 61.66 -49 62.32 -49 63 C-47.35 63.33 -45.7 63.66 -44 64 C-44.01571045 62.45675049 -44.01571045 62.45675049 -44.03173828 60.88232422 C-44.06807599 57.04691072 -44.09095038 53.2115123 -44.10986328 49.37597656 C-44.11988957 47.71937497 -44.13351406 46.06279093 -44.15087891 44.40625 C-44.17527621 42.01818495 -44.18651694 39.63035492 -44.1953125 37.2421875 C-44.20563507 36.50757294 -44.21595764 35.77295837 -44.22659302 35.01608276 C-44.2275374 30.63821908 -43.76237841 27.02551214 -42 23 C-40.125 22.375 -40.125 22.375 -38 22 C-37.44183594 21.37867188 -36.88367188 20.75734375 -36.30859375 20.1171875 C-33.35725407 17.41054434 -30.79032531 16.77093794 -26.9375 15.75 C-25.70902344 15.41484375 -24.48054688 15.0796875 -23.21484375 14.734375 C-20 14 -20 14 -17 14 C-17 15.65 -17 17.3 -17 19 C-18.32 19 -19.64 19 -21 19 C-21 19.66 -21 20.32 -21 21 C-22.65 21.33 -24.3 21.66 -26 22 C-26 22.66 -26 23.32 -26 24 C-27.65 24.33 -29.3 24.66 -31 25 C-31.495 27.475 -31.495 27.475 -32 30 C-32.99 30 -33.98 30 -35 30 C-35 41.22 -35 52.44 -35 64 C-31.03319206 62.02310825 -31.03319206 62.02310825 -27.0859375 60.0078125 C-22.03308211 57.40063141 -16.84247688 55.29361449 -11.5390625 53.24609375 C-8.7220205 52.12747134 -8.7220205 52.12747134 -7 49 C-6.01 49 -5.02 49 -4 49 C-4.0687386 44.05157999 -4.15663469 39.10401629 -4.26245117 34.15625 C-4.29574435 32.47242715 -4.32376256 30.78849152 -4.34643555 29.10449219 C-4.37990205 26.68635914 -4.43221036 24.26926376 -4.48828125 21.8515625 C-4.49467117 21.0963028 -4.5010611 20.34104309 -4.50764465 19.56289673 C-4.53980318 17.21354099 -4.53980318 17.21354099 -5 14 C-5.99 13.34 -6.98 12.68 -8 12 C-6.35 12 -4.7 12 -3 12 C-3 23.22 -3 34.44 -3 46 C-2.01 45.67 -1.02 45.34 0 45 C0.2165625 46.7015625 0.2165625 46.7015625 0.4375 48.4375 C0.61171478 51.80777201 0.61171478 51.80777201 2 53 C2 36.5 2 20 2 3 C1.34 3 0.68 3 0 3 C0 2.01 0 1.02 0 0 Z " fill="#DBF854" transform="translate(176,112)"/>
<path d="M0 0 C0 0.66 0 1.32 0 2 C2.475 2.495 2.475 2.495 5 3 C5 3.66 5 4.32 5 5 C6.01126953 5.10634766 6.01126953 5.10634766 7.04296875 5.21484375 C11.00777107 6.26758519 13.93352184 8.29012849 17.3125 10.5625 C17.95767578 10.98724609 18.60285156 11.41199219 19.26757812 11.84960938 C20.84973954 12.89266393 22.42552501 13.94537872 24 15 C20.56122437 18.60541233 17.40065877 20.71817694 13 23 C12.34 23 11.68 23 11 23 C11 23.66 11 24.32 11 25 C8.09399739 26.25664978 6.20395416 27 3 27 C3 27.66 3 28.32 3 29 C-0.36683915 31.43160605 -1.73350364 32 -6 32 C-6 31.34 -6 30.68 -6 30 C-6.96035156 29.78214844 -7.92070312 29.56429687 -8.91015625 29.33984375 C-13.8864116 27.91429517 -18.06196535 25.26679902 -22.4375 22.5625 C-23.26443359 22.07201172 -24.09136719 21.58152344 -24.94335938 21.07617188 C-25.72388672 20.59857422 -26.50441406 20.12097656 -27.30859375 19.62890625 C-28.01814209 19.19650635 -28.72769043 18.76410645 -29.45874023 18.31860352 C-30.22166382 17.66589478 -30.22166382 17.66589478 -31 17 C-31 16.01 -31 15.02 -31 14 C-29.4609375 12.71875 -29.4609375 12.71875 -27.375 11.5 C-26.64539063 11.06945313 -25.91578125 10.63890625 -25.1640625 10.1953125 C-22.48288904 8.71437553 -19.7393132 7.3696566 -17 6 C-16.38125 5.525625 -15.7625 5.05125 -15.125 4.5625 C-10.48390415 1.14992952 -5.8248924 -2.18433465 0 0 Z " fill="#121307" transform="translate(140,34)"/>
<path d="M0 0 C0.24822252 4.58944347 0.42906459 9.17494986 0.54931641 13.76953125 C0.59944922 15.32979381 0.66758435 16.88959003 0.75439453 18.44824219 C1.02629442 23.45759776 1.11468065 28.08737141 0 33 C-2.93431357 36.17900548 -5.96148335 37.58492292 -10 39 C-14.49865952 41.15935657 -18.13084702 43.53701534 -21.97265625 46.6953125 C-24 48 -24 48 -29 49 C-29 37.78 -29 26.56 -29 15 C-25.7 13.35 -22.4 11.7 -19 10 C-18.0925 9.2575 -17.185 8.515 -16.25 7.75 C-13.52014885 5.62678244 -11.40157079 5.31642519 -8 5 C-8 4.34 -8 3.68 -8 3 C-5.09451118 0.95830515 -3.59857954 0 0 0 Z " fill="#1D1F09" transform="translate(170,127)"/>
<path d="M0 0 C9.27145708 3.64463509 20.90010193 8.90010193 28 16 C28.0883967 18.3756852 28.11530305 20.72208674 28.09765625 23.09765625 C28.0962413 23.80651474 28.09482635 24.51537323 28.09336853 25.24571228 C28.08775443 27.51801712 28.07519963 29.79022475 28.0625 32.0625 C28.05748681 33.59960796 28.05292359 35.13671745 28.04882812 36.67382812 C28.03778042 40.44925642 28.02050641 44.22461171 28 48 C25.64828869 47.40138258 23.3140622 46.73075648 21 46 C20.67 45.34 20.34 44.68 20 44 C18.44308192 43.34263459 16.88395341 42.69019417 15.31640625 42.05859375 C3.79192547 36.79192547 3.79192547 36.79192547 0 33 C-0.08843793 30.55169574 -0.11528752 28.13179401 -0.09765625 25.68359375 C-0.0962413 24.95253922 -0.09482635 24.22148468 -0.09336853 23.46827698 C-0.08775408 21.12464368 -0.07519922 18.78110461 -0.0625 16.4375 C-0.05748686 14.85221492 -0.05292363 13.26692834 -0.04882812 11.68164062 C-0.03777997 7.7877239 -0.02050572 3.89387795 0 0 Z " fill="#1F1E0A" transform="translate(44,93)"/>
<path d="M0 0 C0.99 0 1.98 0 3 0 C3 0.66 3 1.32 3 2 C6.57847037 3.45232253 10.18060107 4.81226545 13.8125 6.125 C14.78832031 6.47820312 15.76414062 6.83140625 16.76953125 7.1953125 C17.50558594 7.46085937 18.24164063 7.72640625 19 8 C19.33 7.01 19.66 6.02 20 5 C21.45823212 4.9729957 22.91660675 4.95360213 24.375 4.9375 C25.18710938 4.92589844 25.99921875 4.91429688 26.8359375 4.90234375 C29 5 29 5 31 6 C31 6.66 31 7.32 31 8 C31.804375 8.226875 32.60875 8.45375 33.4375 8.6875 C37.92190102 10.33964774 41.87452261 12.60893612 46 15 C47.35395339 15.77120788 48.70809765 16.54208085 50.0625 17.3125 C51.031875 17.869375 52.00125 18.42625 53 19 C53 19.99 53 20.98 53 22 C52.28457031 22.3403125 51.56914062 22.680625 50.83203125 23.03125 C45.65237747 25.55071937 40.69761795 28.14118796 35.90966797 31.3359375 C27.95732361 36.61410427 27.95732361 36.61410427 23.1875 36 C21.6096875 35.505 21.6096875 35.505 20 35 C20 34.34 20 33.68 20 33 C18.515 32.505 18.515 32.505 17 32 C17 31.34 17 30.68 17 30 C19.24416299 28.65590238 21.49442796 27.32470104 23.75 26 C24.38421875 25.6184375 25.0184375 25.236875 25.671875 24.84375 C29.13971476 22.82084348 30.89348254 22 35 22 C35 21.01 35 20.02 35 19 C33.35 18.67 31.7 18.34 30 18 C30 17.34 30 16.68 30 16 C21.70283721 16.19673685 16.5344627 19.1617751 9.625 23.5625 C7.68317736 24.77772977 5.73801371 25.98764227 3.7890625 27.19140625 C2.94037598 27.72967041 2.09168945 28.26793457 1.21728516 28.82250977 C-1 30 -1 30 -4 30 C-3.67 28.68 -3.34 27.36 -3 26 C-3.66 25.67 -4.32 25.34 -5 25 C-4.505 23.515 -4.505 23.515 -4 22 C-2.35 21.67 -0.7 21.34 1 21 C0.67 20.34 0.34 19.68 0 19 C-0.08342159 17.55151418 -0.10732861 16.09929131 -0.09765625 14.6484375 C-0.09443359 13.79765625 -0.09121094 12.946875 -0.08789062 12.0703125 C-0.07532227 10.73613281 -0.07532227 10.73613281 -0.0625 9.375 C-0.05798828 8.4778125 -0.05347656 7.580625 -0.04882812 6.65625 C-0.03702591 4.43743352 -0.02056155 2.21874982 0 0 Z " fill="#1B1D09" transform="translate(111,97)"/>
<path d="M0 0 C0 0.66 0 1.32 0 2 C2.475 2.495 2.475 2.495 5 3 C5 3.66 5 4.32 5 5 C5.969375 5.309375 6.93875 5.61875 7.9375 5.9375 C11 7 11 7 12 8 C13.55485575 22.93943874 13.55485575 22.93943874 10.390625 27.1328125 C8.29805872 28.3836322 6.30157171 29.20990822 4 30 C3.113125 30.61875 2.22625 31.2375 1.3125 31.875 C-1 33 -1 33 -3.375 33 C-6.43148064 31.83562642 -8.62809602 30.17665302 -11.21875 28.2109375 C-13.65151991 26.55708076 -16.17559363 25.75776756 -19 25 C-19 24.34 -19 23.68 -19 23 C-20.32 22.67 -21.64 22.34 -23 22 C-23 21.34 -23 20.68 -23 20 C-23.598125 19.896875 -24.19625 19.79375 -24.8125 19.6875 C-27.28243264 18.91123545 -28.32251235 17.92911079 -30 16 C-26.05912197 12.67298951 -21.93015485 10.03857112 -17.5 7.4375 C-16.52353516 6.85838867 -16.52353516 6.85838867 -15.52734375 6.26757812 C-14.26236919 5.51753766 -12.99574558 4.77026971 -11.72729492 4.02612305 C-10.20473765 3.12162718 -8.70395875 2.18068441 -7.20703125 1.234375 C-4.61540777 -0.21509937 -2.92426335 -0.25065114 0 0 Z " fill="#181807" transform="translate(80,67)"/>
<path d="M0 0 C0 11.22 0 22.44 0 34 C-2.97 34.495 -2.97 34.495 -6 35 C-6 35.66 -6 36.32 -6 37 C-7.98 37.495 -7.98 37.495 -10 38 C-10 38.66 -10 39.32 -10 40 C-13.19928365 41.00632013 -14.63732582 41.14882848 -17.7890625 39.85546875 C-18.72492188 39.30503906 -19.66078125 38.75460938 -20.625 38.1875 C-22.03652344 37.37345703 -22.03652344 37.37345703 -23.4765625 36.54296875 C-25.34271343 35.40190123 -27.18000445 34.21333037 -29 33 C-29.85088858 27.09927268 -30.9516612 19.13762642 -27.67578125 13.87109375 C-25.82232832 12.54243873 -24.15028918 11.75049309 -22 11 C-20.865625 10.505 -19.73125 10.01 -18.5625 9.5 C-17.386875 9.005 -16.21125 8.51 -15 8 C-12.2779989 6.41780433 -9.64041144 4.7140486 -7 3 C-2.24137931 0 -2.24137931 0 0 0 Z " fill="#161507" transform="translate(170,59)"/>
<path d="M0 0 C2.75 1.5 2.75 1.5 5 3 C5.66 3.33 6.32 3.66 7 4 C7 4.66 7 5.32 7 6 C7.99 6 8.98 6 10 6 C10 17.22 10 28.44 10 40 C6 39 6 39 4.125 37.0625 C1.58999009 34.60204921 -0.62826436 33.91956427 -4 33 C-4 32.34 -4 31.68 -4 31 C-4.58007812 30.82984375 -5.16015625 30.6596875 -5.7578125 30.484375 C-6.53898437 30.24203125 -7.32015625 29.9996875 -8.125 29.75 C-8.89070313 29.51796875 -9.65640625 29.2859375 -10.4453125 29.046875 C-13.8480521 27.65248018 -16.25058604 26.49659428 -19 24 C-19.73687753 20.88773163 -19.56852699 17.92582758 -19.375 14.75 C-19.34792969 13.90953125 -19.32085937 13.0690625 -19.29296875 12.203125 C-19.22244109 10.13431366 -19.11482367 8.06682607 -19 6 C-17.20856793 5.0204042 -15.41684696 4.0413367 -13.625 3.0625 C-12.62726563 2.51722656 -11.62953125 1.97195312 -10.6015625 1.41015625 C-6.34839362 -0.89524009 -4.81128521 -1.13206711 0 0 Z " fill="#222609" transform="translate(121,136)"/>
<path d="M0 0 C0 0.66 0 1.32 0 2 C2.475 2.495 2.475 2.495 5 3 C5 3.99 5 4.98 5 6 C3.5459375 6.5878125 3.5459375 6.5878125 2.0625 7.1875 C-1.82693206 8.83852422 -5.43583453 10.88424769 -9.08203125 13.01171875 C-11 14 -11 14 -13 14 C-12.505 14.45375 -12.01 14.9075 -11.5 15.375 C-10 17 -10 17 -10 19 C-7.36 19.33 -4.72 19.66 -2 20 C-2.33 20.66 -2.66 21.32 -3 22 C-4.32 22 -5.64 22 -7 22 C-6.979375 22.804375 -6.95875 23.60875 -6.9375 24.4375 C-7 27 -7 27 -8 28 C-8.15996166 30.59153107 -8.25938697 33.1595202 -8.31640625 35.75390625 C-8.33718735 36.52935287 -8.35796844 37.3047995 -8.37937927 38.10374451 C-8.44495802 40.58990308 -8.50379799 43.07617045 -8.5625 45.5625 C-8.60567733 47.24415204 -8.64929136 48.92579294 -8.69335938 50.60742188 C-8.80064779 54.73816871 -8.90189132 58.86902536 -9 63 C-9.33 63 -9.66 63 -10 63 C-10 51.78 -10 40.56 -10 29 C-10.99 29 -11.98 29 -13 29 C-13 28.34 -13 27.68 -13 27 C-14.36125 26.566875 -14.36125 26.566875 -15.75 26.125 C-19 25 -19 25 -21.0625 23.8125 C-23.73978771 22.68976645 -25.21482188 23.25891459 -28 24 C-30.40419194 25.16318018 -30.40419194 25.16318018 -32.6875 26.5625 C-36.79603399 29 -36.79603399 29 -39 29 C-39 34.94 -39 40.88 -39 47 C-39.33 47 -39.66 47 -40 47 C-40.02888146 43.68751813 -40.04675799 40.37506833 -40.0625 37.0625 C-40.07087891 36.11697266 -40.07925781 35.17144531 -40.08789062 34.19726562 C-40.09111328 33.29814453 -40.09433594 32.39902344 -40.09765625 31.47265625 C-40.10289307 30.64000244 -40.10812988 29.80734863 -40.11352539 28.94946289 C-40 27 -40 27 -39 26 C-40.32 25.67 -41.64 25.34 -43 25 C-43 23 -43 23 -42 22 C-42.66 22 -43.32 22 -44 22 C-44 21.34 -44 20.68 -44 20 C-42.92685547 19.48953125 -42.92685547 19.48953125 -41.83203125 18.96875 C-33.89910782 15.11004468 -26.46047992 10.69664756 -19 6 C-17.15012471 4.84725134 -15.29634173 3.70073348 -13.4375 2.5625 C-12.67308594 2.08941406 -11.90867188 1.61632812 -11.12109375 1.12890625 C-7.06603052 -1.02931341 -4.43983808 -1.10995952 0 0 Z " fill="#D4EE50" transform="translate(141,113)"/>
<path d="M0 0 C0 1.65 0 3.3 0 5 C-0.886875 4.896875 -1.77375 4.79375 -2.6875 4.6875 C-6.15349314 4.71532378 -6.15349314 4.71532378 -8.8125 7.1875 C-10.9882377 9.98487704 -11.70197895 11.52308771 -12 15 C-11.01 15.33 -10.02 15.66 -9 16 C-9.33 16.66 -9.66 17.32 -10 18 C-8.02 19.32 -6.04 20.64 -4 22 C-4.66 24.64 -5.32 27.28 -6 30 C-5.34 30 -4.68 30 -4 30 C-4 30.66 -4 31.32 -4 32 C-3.01 32 -2.02 32 -1 32 C-1.33 32.99 -1.66 33.98 -2 35 C-5.3 33.35 -8.6 31.7 -12 30 C-12 29.34 -12 28.68 -12 28 C-12.99 28 -13.98 28 -15 28 C-15.33 48.46 -15.66 68.92 -16 90 C-16.66 90 -17.32 90 -18 90 C-18.33 70.2 -18.66 50.4 -19 30 C-19.66 30 -20.32 30 -21 30 C-21 29.34 -21 28.68 -21 28 C-21.66 28 -22.32 28 -23 28 C-23.33 27.34 -23.66 26.68 -24 26 C-24.33 27.98 -24.66 29.96 -25 32 C-25.33 32 -25.66 32 -26 32 C-26.18964787 29.10109685 -26.32785971 26.21461131 -26.4375 23.3125 C-26.49615234 22.49587891 -26.55480469 21.67925781 -26.61523438 20.83789062 C-26.7840625 14.88066951 -26.7840625 14.88066951 -24.51391602 12.33081055 C-21.18507475 9.89006861 -18.18143229 8.38013021 -14 8 C-14 7.34 -14 6.68 -14 6 C-12.04414675 4.99515796 -10.08523763 3.99626195 -8.125 3 C-7.03445312 2.443125 -5.94390625 1.88625 -4.8203125 1.3125 C-2 0 -2 0 0 0 Z " fill="#C1DC51" transform="translate(119,32)"/>
<path d="M0 0 C4.51517579 1.15092716 8.101048 2.4656812 12 5 C13.2670192 5.73577425 14.53803175 6.46470538 15.8125 7.1875 C16.864375 7.785625 17.91625 8.38375 19 9 C19 9.99 19 10.98 19 12 C18.28457031 12.3403125 17.56914062 12.680625 16.83203125 13.03125 C11.65237747 15.55071937 6.69761795 18.14118796 1.90966797 21.3359375 C-6.04267639 26.61410427 -6.04267639 26.61410427 -10.8125 26 C-11.864375 25.67 -12.91625 25.34 -14 25 C-14 24.34 -14 23.68 -14 23 C-14.99 22.67 -15.98 22.34 -17 22 C-17 21.34 -17 20.68 -17 20 C-14.75583701 18.65590238 -12.50557204 17.32470104 -10.25 16 C-9.61578125 15.6184375 -8.9815625 15.236875 -8.328125 14.84375 C-4.86028524 12.82084348 -3.10651746 12 1 12 C1 11.01 1 10.02 1 9 C-1.475 8.505 -1.475 8.505 -4 8 C-4 7.34 -4 6.68 -4 6 C-4.99 5.67 -5.98 5.34 -7 5 C-7 4.34 -7 3.68 -7 3 C-6.01 3 -5.02 3 -4 3 C-4 3.66 -4 4.32 -4 5 C-3.01 5 -2.02 5 -1 5 C-0.67 3.35 -0.34 1.7 0 0 Z " fill="#1D1A07" transform="translate(145,107)"/>
<path d="M0 0 C0 6.93 0 13.86 0 21 C1.32 20.67 2.64 20.34 4 20 C6 22 6 22 6 24 C7.32 24.66 8.64 25.32 10 26 C9.34 26.66 8.68 27.32 8 28 C7.01 28 6.02 28 5 28 C5 28.66 5 29.32 5 30 C3.35 30.33 1.7 30.66 0 31 C0 31.66 0 32.32 0 33 C-2.97 34.32 -5.94 35.64 -9 37 C-9 25.78 -9 14.56 -9 3 C-2 0 -2 0 0 0 Z " fill="#25280A" transform="translate(92,105)"/>
<path d="M0 0 C0.66 0.33 1.32 0.66 2 1 C1.01 1.33 0.02 1.66 -1 2 C-1 2.66 -1 3.32 -1 4 C0.65 4.33 2.3 4.66 4 5 C3.01 5.495 3.01 5.495 2 6 C2 12.6 2 19.2 2 26 C2.99 26.33 3.98 26.66 5 27 C6 33.625 6 33.625 6 37 C1.05 35.515 1.05 35.515 -4 34 C-4 33.34 -4 32.68 -4 32 C-4.66 32 -5.32 32 -6 32 C-6.04898438 30.73542969 -6.09796875 29.47085938 -6.1484375 28.16796875 C-6.2234738 26.50779053 -6.29902127 24.84763536 -6.375 23.1875 C-6.42140625 21.93743164 -6.42140625 21.93743164 -6.46875 20.66210938 C-6.50742188 19.85966797 -6.54609375 19.05722656 -6.5859375 18.23046875 C-6.6173584 17.49207764 -6.6487793 16.75368652 -6.68115234 15.99291992 C-6.90834614 13.68650412 -6.90834614 13.68650412 -9 11 C-8.566875 10.44570312 -8.13375 9.89140625 -7.6875 9.3203125 C-7.130625 8.59585938 -6.57375 7.87140625 -6 7.125 C-5.443125 6.40570313 -4.88625 5.68640625 -4.3125 4.9453125 C-2.81356623 3.1147915 -2.81356623 3.1147915 -3 1 C-2.01 0.67 -1.02 0.34 0 0 Z " fill="#E0F94F" transform="translate(99,134)"/>
<path d="M0 0 C1.32 0.33 2.64 0.66 4 1 C4 18.49 4 35.98 4 54 C1.525 54.495 1.525 54.495 -1 55 C-1 55.66 -1 56.32 -1 57 C-3.52475462 58.26237731 -5.31200466 58.09856404 -8.125 58.0625 C-9.03507813 58.05347656 -9.94515625 58.04445312 -10.8828125 58.03515625 C-11.58148438 58.02355469 -12.28015625 58.01195312 -13 58 C-13.33 56.68 -13.66 55.36 -14 54 C-13.21625 53.731875 -12.4325 53.46375 -11.625 53.1875 C-8.71885077 52.15185568 -8.71885077 52.15185568 -7 49 C-6.01 49 -5.02 49 -4 49 C-4.0687386 44.05157999 -4.15663469 39.10401629 -4.26245117 34.15625 C-4.29574435 32.47242715 -4.32376256 30.78849152 -4.34643555 29.10449219 C-4.37990205 26.68635914 -4.43221036 24.26926376 -4.48828125 21.8515625 C-4.49467117 21.0963028 -4.5010611 20.34104309 -4.50764465 19.56289673 C-4.53980318 17.21354099 -4.53980318 17.21354099 -5 14 C-5.99 13.34 -6.98 12.68 -8 12 C-6.35 12 -4.7 12 -3 12 C-3 23.22 -3 34.44 -3 46 C-1.515 45.505 -1.515 45.505 0 45 C0.144375 46.134375 0.28875 47.26875 0.4375 48.4375 C0.61171478 51.80777201 0.61171478 51.80777201 2 53 C2 36.5 2 20 2 3 C1.34 3 0.68 3 0 3 C0 2.01 0 1.02 0 0 Z " fill="#DBFC4B" transform="translate(176,112)"/>
<path d="M0 0 C6.435 2.97 6.435 2.97 13 6 C13 6.66 13 7.32 13 8 C14.36125 8.12375 14.36125 8.12375 15.75 8.25 C19.40077839 9.09248732 20.63384583 10.17881618 23 13 C21.576875 12.9071875 21.576875 12.9071875 20.125 12.8125 C18.578125 12.9053125 18.578125 12.9053125 17 13 C16.01 14.485 16.01 14.485 15 16 C14.01 16 13.02 16 12 16 C11.67 16.66 11.34 17.32 11 18 C10.01 17.67 9.02 17.34 8 17 C8 16.34 8 15.68 8 15 C7.154375 14.731875 6.30875 14.46375 5.4375 14.1875 C1.86145933 12.9521405 -1.53860908 11.523012 -5 10 C-4.67 9.34 -4.34 8.68 -4 8 C-2.02 8.495 -2.02 8.495 0 9 C0 6.03 0 3.06 0 0 Z " fill="#CEEF4D" transform="translate(104,161)"/>
<path d="M0 0 C0 7.26 0 14.52 0 22 C0.99 22.33 1.98 22.66 3 23 C1.02 23 -0.96 23 -3 23 C-3.33 24.32 -3.66 25.64 -4 27 C-4.66 27 -5.32 27 -6 27 C-6 24.36 -6 21.72 -6 19 C-6.33 21.31 -6.66 23.62 -7 26 C-7.33 26 -7.66 26 -8 26 C-8 18.74 -8 11.48 -8 4 C-6.68 3.67 -5.36 3.34 -4 3 C-4 2.34 -4 1.68 -4 1 C-2 0 -2 0 0 0 Z " fill="#1B1E07" transform="translate(92,105)"/>
<path d="M0 0 C0 0.66 0 1.32 0 2 C2.31 2.66 4.62 3.32 7 4 C3.0491814 8.24489248 -2.48767442 12.76321401 -8.43359375 13.1640625 C-10.625 12.875 -10.625 12.875 -14 12 C-14 11.34 -14 10.68 -14 10 C-14.99 9.67 -15.98 9.34 -17 9 C-17 8.34 -17 7.68 -17 7 C-14.73595458 5.63319847 -12.46498979 4.28155555 -10.1875 2.9375 C-9.54490234 2.54755859 -8.90230469 2.15761719 -8.24023438 1.75585938 C-3.33984375 -1.11328125 -3.33984375 -1.11328125 0 0 Z " fill="#28260D" transform="translate(145,120)"/>
<path d="M0 0 C-0.6875 2.875 -0.6875 2.875 -2 6 C-5.29564692 7.90800611 -7.12388592 8 -11 8 C-11 24.5 -11 41 -11 58 C-9.02 58.66 -7.04 59.32 -5 60 C-5 60.99 -5 61.98 -5 63 C-7.9719385 61.87548273 -10.33440687 60.77706209 -13 59 C-13.36076355 56.78536987 -13.36076355 56.78536987 -13.34057617 53.99951172 C-13.34034958 52.95858368 -13.34012299 51.91765564 -13.33988953 50.84518433 C-13.32440567 49.71807037 -13.30892181 48.59095642 -13.29296875 47.4296875 C-13.28660149 45.70264084 -13.28660149 45.70264084 -13.28010559 43.94070435 C-13.26327052 40.25190145 -13.22560874 36.56363864 -13.1875 32.875 C-13.17245944 30.37891412 -13.15876995 27.88281971 -13.14648438 25.38671875 C-13.1133512 19.25762725 -13.06310389 13.1288522 -13 7 C-11.68 6.67 -10.36 6.34 -9 6 C-9 5.34 -9 4.68 -9 4 C-2.25 0 -2.25 0 0 0 Z " fill="#E4F872" transform="translate(47,73)"/>
<path d="M0 0 C0.99 0 1.98 0 3 0 C3 0.66 3 1.32 3 2 C3.66 2.2475 4.32 2.495 5 2.75 C8.76360907 4.31817045 12.3711424 6.14505046 16 8 C15 11 15 11 13.29296875 12.1328125 C12.59816406 12.46023437 11.90335938 12.78765625 11.1875 13.125 C10.50042969 13.45757812 9.81335938 13.79015625 9.10546875 14.1328125 C7.08300305 14.96581322 5.13306793 15.53024571 3 16 C3 16.66 3 17.32 3 18 C2.01 18 1.02 18 0 18 C0 12.06 0 6.12 0 0 Z " fill="#CEE161" transform="translate(111,97)"/>
<path d="M0 0 C1.32 0.33 2.64 0.66 4 1 C4.2538535 8.2949782 4.42878545 15.58881674 4.54931641 22.88720703 C4.59956339 25.3687597 4.66777632 27.85001693 4.75439453 30.33056641 C4.87592849 33.90080531 4.93244907 37.46713068 4.9765625 41.0390625 C5.02817535 42.14553131 5.07978821 43.25200012 5.13296509 44.39199829 C5.13526239 47.55709687 5.02713064 50.00321641 4 53 C-0.29429856 57.13557603 -5.18137962 59.04804051 -11 60 C-10.67 59.01 -10.34 58.02 -10 57 C-8.68 57 -7.36 57 -6 57 C-6 56.34 -6 55.68 -6 55 C-5.34 55 -4.68 55 -4 55 C-4 54.34 -4 53.68 -4 53 C-1.03 52.505 -1.03 52.505 2 52 C1.88247267 45.07645153 1.75763983 38.15306263 1.62768555 31.22973633 C1.58432792 28.87364705 1.54265346 26.51752617 1.50268555 24.16137695 C1.44500324 20.77806062 1.38130269 17.39490343 1.31640625 14.01171875 C1.29969376 12.95538742 1.28298126 11.89905609 1.26576233 10.81071472 C1.24581711 9.82992447 1.22587189 8.84913422 1.20532227 7.83862305 C1.18977798 6.97480515 1.1742337 6.11098724 1.15821838 5.22099304 C1.07990261 2.82634575 1.07990261 2.82634575 0 0 Z " fill="#DFFA67" transform="translate(176,45)"/>
<path d="M0 0 C0.99 0.33 1.98 0.66 3 1 C3 1.66 3 2.32 3 3 C3.78375 3.144375 4.5675 3.28875 5.375 3.4375 C8 4 8 4 10 5 C10 8.96 10 12.92 10 17 C5.38 14.69 0.76 12.38 -4 10 C-4 9.34 -4 8.68 -4 8 C-3.34 8 -2.68 8 -2 8 C-1.855625 7.236875 -1.71125 6.47375 -1.5625 5.6875 C-1 3 -1 3 0 0 Z " fill="#1D1C07" transform="translate(121,69)"/>
<path d="M0 0 C1.32 0.33 2.64 0.66 4 1 C4 18.49 4 35.98 4 54 C1.525 54.495 1.525 54.495 -1 55 C-1 55.66 -1 56.32 -1 57 C-2.98 57.495 -2.98 57.495 -5 58 C-4.3125 56.0625 -4.3125 56.0625 -3 54 C-0.525 53.505 -0.525 53.505 2 53 C2 36.5 2 20 2 3 C1.34 3 0.68 3 0 3 C0 2.01 0 1.02 0 0 Z " fill="#E6F976" transform="translate(176,112)"/>
<path d="M0 0 C0.66 0 1.32 0 2 0 C2 11.22 2 22.44 2 34 C-7 32 -7 32 -10 31 C-10 30.34 -10 29.68 -10 29 C-11.98 28.67 -13.96 28.34 -16 28 C-16.79953138 31.28696233 -17.09658936 32.71023192 -16 36 C-20.77609498 34.35821735 -24.79382904 31.73453298 -29 29 C-26.30234372 27.65117186 -24.84835666 28.19661735 -22 29 C-21.67 29.66 -21.34 30.32 -21 31 C-18.65941363 28.87219421 -17.29299694 26.88437779 -16 24 C-15.278125 24.45375 -14.55625 24.9075 -13.8125 25.375 C-11.25105919 26.85494358 -8.76722011 27.97217539 -6 29 C-6 29.66 -6 30.32 -6 31 C-4.02 31.33 -2.04 31.66 0 32 C0 21.44 0 10.88 0 0 Z " fill="#A6B947" transform="translate(71,108)"/>
<path d="M0 0 C0.99 0 1.98 0 3 0 C3.33 1.98 3.66 3.96 4 6 C3.34 6 2.68 6 2 6 C2 6.99 2 7.98 2 9 C0.35 9 -1.3 9 -3 9 C-3.1546875 9.928125 -3.1546875 9.928125 -3.3125 10.875 C-4 13 -4 13 -7 15 C-9.6875 15.125 -9.6875 15.125 -12 15 C-12.47583227 12.30361716 -12.40183058 10.60832685 -10.875 8.296875 C-9.33426975 6.57960274 -7.95362856 5.23201801 -6 4 C-2.625 4.125 -2.625 4.125 0 5 C0 3.35 0 1.7 0 0 Z " fill="#E0FB51" transform="translate(119,32)"/>
<path d="M0 0 C0.3403125 0.9590625 0.3403125 0.9590625 0.6875 1.9375 C1.85250896 4.27193661 1.85250896 4.27193661 4.625 4.75 C5.40875 4.8325 6.1925 4.915 7 5 C5.625 6.5 5.625 6.5 4 8 C3.34 8 2.68 8 2 8 C2 8.66 2 9.32 2 10 C1.030625 10.37125 0.06125 10.7425 -0.9375 11.125 C-5.68230842 13.13765439 -9.79434641 16.0531815 -14 19 C-14.66 18.67 -15.32 18.34 -16 18 C-15.505 16.515 -15.505 16.515 -15 15 C-13.35 14.67 -11.7 14.34 -10 14 C-10 13.34 -10 12.68 -10 12 C-8.35 11.67 -6.7 11.34 -5 11 C-5 10.34 -5 9.68 -5 9 C-3.68 9 -2.36 9 -1 9 C-1 7.35 -1 5.7 -1 4 C-1.77085937 4.22816406 -2.54171875 4.45632812 -3.3359375 4.69140625 C-4.33882812 4.97886719 -5.34171875 5.26632813 -6.375 5.5625 C-7.87160156 5.99755859 -7.87160156 5.99755859 -9.3984375 6.44140625 C-12 7 -12 7 -14 6 C-12.75443908 5.18071114 -11.50333365 4.36984814 -10.25 3.5625 C-9.20585937 2.88380859 -9.20585937 2.88380859 -8.140625 2.19140625 C-5.41493449 0.67437047 -3.11349412 0 0 0 Z " fill="#D0E75F" transform="translate(160,122)"/>
<path d="M0 0 C0.99 0 1.98 0 3 0 C3 11.55 3 23.1 3 35 C1.515 35.495 1.515 35.495 0 36 C-0.66 36.99 -1.32 37.98 -2 39 C-4.71484375 40.38671875 -4.71484375 40.38671875 -7.9375 41.6875 C-8.99839844 42.12449219 -10.05929688 42.56148437 -11.15234375 43.01171875 C-14 44 -14 44 -17 44 C-12.67630171 40.12358085 -5.04191557 34 1 34 C0.67 22.78 0.34 11.56 0 0 Z " fill="#AABE46" transform="translate(169,126)"/>
<path d="M0 0 C1.98 0.66 3.96 1.32 6 2 C6 2.66 6 3.32 6 4 C7.2065625 4.185625 7.2065625 4.185625 8.4375 4.375 C9.7059375 4.684375 9.7059375 4.684375 11 5 C11.33 5.66 11.66 6.32 12 7 C10.35 7.33 8.7 7.66 7 8 C7 9.32 7 10.64 7 12 C7.99 12.33 8.98 12.66 10 13 C10.33 13.99 10.66 14.98 11 16 C6.25 15.125 6.25 15.125 4 14 C4 13.34 4 12.68 4 12 C2.68 11.67 1.36 11.34 0 11 C0 7.37 0 3.74 0 0 Z " fill="#D3EF53" transform="translate(111,75)"/>
<path d="M0 0 C1.32 0 2.64 0 4 0 C4 0.66 4 1.32 4 2 C4.66 2 5.32 2 6 2 C6 2.66 6 3.32 6 4 C5.34 4 4.68 4 4 4 C4 4.66 4 5.32 4 6 C3.195625 6.28875 2.39125 6.5775 1.5625 6.875 C-1.1326468 7.73262568 -1.1326468 7.73262568 -2 10 C-3.64551962 10.71727778 -5.31422289 11.38325228 -7 12 C-7.99 12.495 -7.99 12.495 -9 13 C-9.66 12.67 -10.32 12.34 -11 12 C-11 11.01 -11 10.02 -11 9 C-12.32 8.67 -13.64 8.34 -15 8 C-14.01 8 -13.02 8 -12 8 C-12 7.34 -12 6.68 -12 6 C-9.03 5.34 -6.06 4.68 -3 4 C-3 3.34 -3 2.68 -3 2 C-2.01 2 -1.02 2 0 2 C0 1.34 0 0.68 0 0 Z " fill="#DDFB51" transform="translate(59,67)"/>
<path d="M0 0 C2.53540099 5.07080198 3.13657517 7.373305 3.125 13.0625 C3.12757813 14.33222656 3.13015625 15.60195313 3.1328125 16.91015625 C3 20 3 20 2 21 C1.87778948 23.24386844 1.82018527 25.49130276 1.7890625 27.73828125 C1.76098494 29.12956888 1.73232042 30.52084476 1.703125 31.91210938 C1.66191116 34.11091677 1.62503594 36.30950704 1.59863281 38.50854492 C1.57097154 40.62725502 1.52509223 42.74496 1.4765625 44.86328125 C1.45674316 46.13469971 1.43692383 47.40611816 1.41650391 48.71606445 C0.98291018 52.13474511 0.33413973 53.53291275 -2 56 C-2.66 55.67 -3.32 55.34 -4 55 C-3.67 54.34 -3.34 53.68 -3 53 C-2.34 53 -1.68 53 -1 53 C-0.67 35.51 -0.34 18.02 0 0 Z " fill="#090805" transform="translate(182,46)"/>
<path d="M0 0 C0.66 0 1.32 0 2 0 C2 12.21 2 24.42 2 37 C-0.31 37.66 -2.62 38.32 -5 39 C-5.33 38.34 -5.66 37.68 -6 37 C-3.03 36.505 -3.03 36.505 0 36 C-0.05329468 34.41747437 -0.05329468 34.41747437 -0.10766602 32.80297852 C-0.23767079 28.90258183 -0.36095839 25.00199716 -0.48217773 21.10131836 C-0.53567115 19.41050377 -0.59100598 17.71974642 -0.64819336 16.02905273 C-0.72990041 13.60412953 -0.80506395 11.17908006 -0.87890625 8.75390625 C-0.90594131 7.99348526 -0.93297638 7.23306427 -0.96083069 6.44960022 C-1.01291299 4.63376666 -1.01186585 2.81654157 -1 1 C-0.67 0.67 -0.34 0.34 0 0 Z " fill="#AEBD46" transform="translate(170,57)"/>
<path d="M0 0 C0.86625 0.37125 0.86625 0.37125 1.75 0.75 C0.93958252 1.0900708 0.12916504 1.4301416 -0.70581055 1.78051758 C-3.59956892 3.57406663 -3.59956892 3.57406663 -3.90942383 7.11987305 C-3.95047012 8.49996922 -3.96471829 9.88103372 -3.95703125 11.26171875 C-3.97215256 11.98994339 -3.98727386 12.71816803 -4.00285339 13.46846008 C-4.04580266 15.79178655 -4.05457426 18.11381578 -4.0625 20.4375 C-4.08563906 22.01370654 -4.11100318 23.58988209 -4.13867188 25.16601562 C-4.20159426 29.02745875 -4.23387313 32.88808933 -4.25 36.75 C-4.91 36.75 -5.57 36.75 -6.25 36.75 C-6.34901748 32.12359847 -6.42153649 27.49781613 -6.46972656 22.87060547 C-6.4898188 21.29725396 -6.51709799 19.72397692 -6.55175781 18.15087891 C-6.60038494 15.88685728 -6.62299135 13.62382427 -6.640625 11.359375 C-6.66127014 10.65818542 -6.68191528 9.95699585 -6.70318604 9.23455811 C-6.70476055 5.79299287 -6.46838657 4.03880464 -4.36621094 1.25878906 C-2.25 -0.25 -2.25 -0.25 0 0 Z " fill="#E3F970" transform="translate(86.25,105.25)"/>
<path d="M0 0 C6.60929383 1.00413308 10.79229827 2.78951775 16 7 C14.171875 7.58984375 14.171875 7.58984375 12 8 C9.25 6.5625 9.25 6.5625 7 5 C6.01 6.485 6.01 6.485 5 8 C6.32 8.33 7.64 8.66 9 9 C8.34 9 7.68 9 7 9 C7 9.66 7 10.32 7 11 C7.66 11.33 8.32 11.66 9 12 C8.67 12.99 8.34 13.98 8 15 C6.49460339 14.05016642 4.99579653 13.08988109 3.5 12.125 C2.6646875 11.59132813 1.829375 11.05765625 0.96875 10.5078125 C0.3190625 10.01023437 -0.330625 9.51265625 -1 9 C-1 8.34 -1 7.68 -1 7 C-0.01 6.67 0.98 6.34 2 6 C3.20882096 3.99983534 3.20882096 3.99983534 4 2 C2.68 1.67 1.36 1.34 0 1 C0 0.67 0 0.34 0 0 Z " fill="#D6EB62" transform="translate(58,91)"/>
<path d="M0 0 C0.12375 1.134375 0.2475 2.26875 0.375 3.4375 C0.58125 4.613125 0.7875 5.78875 1 7 C1.66 7.33 2.32 7.66 3 8 C3 7.34 3 6.68 3 6 C4.98 5.67 6.96 5.34 9 5 C7 8 7 8 5.0546875 8.51171875 C4.33539063 8.56972656 3.61609375 8.62773438 2.875 8.6875 C1.59625 8.790625 0.3175 8.89375 -1 9 C-1 8.34 -1 7.68 -1 7 C-1.66 7 -2.32 7 -3 7 C-3 6.34 -3 5.68 -3 5 C-4.32 5 -5.64 5 -7 5 C-7 5.66 -7 6.32 -7 7 C-7.99 7 -8.98 7 -10 7 C-10 7.66 -10 8.32 -10 9 C-12.97 9.66 -15.94 10.32 -19 11 C-16.45793471 8.45793471 -14.75800501 7.15457265 -11.6875 5.5 C-10.89730469 5.07332031 -10.10710938 4.64664063 -9.29296875 4.20703125 C-1.30097087 0 -1.30097087 0 0 0 Z " fill="#D0E55D" transform="translate(66,62)"/>
<path d="M0 0 C-0.33 1.32 -0.66 2.64 -1 4 C-1.66 4 -2.32 4 -3 4 C-3 4.99 -3 5.98 -3 7 C-0.03 7.495 -0.03 7.495 3 8 C2 9.5625 2 9.5625 0 11 C-2.76614782 10.96726452 -5.26030547 10.49404328 -8 10 C-8 9.34 -8 8.68 -8 8 C-8.99 7.67 -9.98 7.34 -11 7 C-11 6.34 -11 5.68 -11 5 C-9.54462432 4.16151196 -8.08559627 3.32936066 -6.625 2.5 C-5.81289062 2.0359375 -5.00078125 1.571875 -4.1640625 1.09375 C-2 0 -2 0 0 0 Z " fill="#2F300D" transform="translate(139,122)"/>
<path d="M0 0 C1.9375 0.125 1.9375 0.125 4 1 C5.25 3.5625 5.25 3.5625 6 6 C6.66 6 7.32 6 8 6 C9 9 9 9 9 12 C7.68 12.33 6.36 12.66 5 13 C4.67 11.68 4.34 10.36 4 9 C3.01 9 2.02 9 1 9 C1 8.34 1 7.68 1 7 C0.34 7 -0.32 7 -1 7 C-1.04254356 5.00045254 -1.04080783 2.99958364 -1 1 C-0.67 0.67 -0.34 0.34 0 0 Z " fill="#DAFA52" transform="translate(114,55)"/>
<path d="M0 0 C0.33 0 0.66 0 1 0 C1.02505615 0.70084717 1.0501123 1.40169434 1.07592773 2.1237793 C1.19226545 5.31185488 1.31482044 8.49966242 1.4375 11.6875 C1.47681641 12.79029297 1.51613281 13.89308594 1.55664062 15.02929688 C1.59853516 16.09599609 1.64042969 17.16269531 1.68359375 18.26171875 C1.72025146 19.24100342 1.75690918 20.22028809 1.79467773 21.22924805 C1.99219333 23.89465177 2.41573033 26.39469788 3 29 C3.763125 28.62875 4.52625 28.2575 5.3125 27.875 C6.199375 27.58625 7.08625 27.2975 8 27 C8.99 27.66 9.98 28.32 11 29 C9.54462432 29.83848804 8.08559627 30.67063934 6.625 31.5 C5.40683594 32.19609375 5.40683594 32.19609375 4.1640625 32.90625 C2 34 2 34 0 34 C0 22.78 0 11.56 0 0 Z " fill="#575C1E" transform="translate(141,142)"/>
<path d="M0 0 C0 1.65 0 3.3 0 5 C-0.886875 4.896875 -1.77375 4.79375 -2.6875 4.6875 C-7.02352461 5.09655893 -8.11663528 6.88284896 -11 10 C-11.99 10 -12.98 10 -14 10 C-14 10.66 -14 11.32 -14 12 C-15.98 12.33 -17.96 12.66 -20 13 C-19.67 11.68 -19.34 10.36 -19 9 C-17.35 8.67 -15.7 8.34 -14 8 C-14 7.34 -14 6.68 -14 6 C-12.04414675 4.99515796 -10.08523763 3.99626195 -8.125 3 C-7.03445312 2.443125 -5.94390625 1.88625 -4.8203125 1.3125 C-2 0 -2 0 0 0 Z " fill="#C8E059" transform="translate(119,32)"/>
<path d="M0 0 C1.485 0.99 1.485 0.99 3 2 C2.01 2 1.02 2 0 2 C0 1.34 0 0.68 0 0 Z M-1 2 C1.475 2.99 1.475 2.99 4 4 C3.34 6.31 2.68 8.62 2 11 C-1.0831351 9.80100302 -4.06279492 8.52299523 -7 7 C-6.34 5.68 -5.68 4.36 -5 3 C-4.01 3.33 -3.02 3.66 -2 4 C-1.67 3.34 -1.34 2.68 -1 2 Z " fill="#23210E" transform="translate(121,92)"/>
<path d="M0 0 C1.32 0.33 2.64 0.66 4 1 C4 17.83 4 34.66 4 52 C3.67 52 3.34 52 3 52 C3 35.83 3 19.66 3 3 C2.01 2.67 1.02 2.34 0 2 C0 1.34 0 0.68 0 0 Z " fill="#E5F883" transform="translate(176,45)"/>
<path d="M0 0 C2.16842379 1.19670187 4.0141689 2.49851795 6 4 C1.84323833 5.38558722 -1.20756747 4.23107674 -5.40625 3.27734375 C-8.23578022 2.69494944 -8.23578022 2.69494944 -11 5 C-13.1875 4.625 -13.1875 4.625 -15 4 C-9.85336161 0.13667923 -6.541261 -2.05928587 0 0 Z " fill="#CBE35E" transform="translate(82,57)"/>
<path d="M0 0 C0 8.58 0 17.16 0 26 C-0.66 25.67 -1.32 25.34 -2 25 C-2.33 17.08 -2.66 9.16 -3 1 C-1 0 -1 0 0 0 Z " fill="#0F1407" transform="translate(170,129)"/>
<path d="M0 0 C0.33 0.99 0.66 1.98 1 3 C-0.32 3 -1.64 3 -3 3 C-3 3.99 -3 4.98 -3 6 C-7.18414355 9.50928168 -11.76419562 9.66919754 -17 10 C-15.625 8.5 -15.625 8.5 -14 7 C-13.34 7 -12.68 7 -12 7 C-12 6.34 -12 5.68 -12 5 C-9.09399739 3.74335022 -7.20395416 3 -4 3 C-4 2.34 -4 1.68 -4 1 C-2 0 -2 0 0 0 Z " fill="#D5E960" transform="translate(155,56)"/>
<path d="M0 0 C1.65 0 3.3 0 5 0 C5 11.22 5 22.44 5 34 C6.485 33.505 6.485 33.505 8 33 C7.67 34.32 7.34 35.64 7 37 C6.01 37 5.02 37 4 37 C3.98541748 35.95021973 3.97083496 34.90043945 3.95581055 33.81884766 C3.89792007 29.93096526 3.82068794 26.04366774 3.73754883 22.15625 C3.70425565 20.47242715 3.67623744 18.78849152 3.65356445 17.10449219 C3.62009795 14.68635914 3.56778964 12.26926376 3.51171875 9.8515625 C3.50532883 9.0963028 3.4989389 8.34104309 3.49235535 7.56289673 C3.46019682 5.21354099 3.46019682 5.21354099 3 2 C2.01 1.34 1.02 0.68 0 0 Z " fill="#E8FE59" transform="translate(168,124)"/>
<path d="M0 0 C0.70125 0.28875 1.4025 0.5775 2.125 0.875 C5.05452503 2.02133588 8.00921653 3.02625654 11 4 C11 4.66 11 5.32 11 6 C9.68 5.67 8.36 5.34 7 5 C7 5.99 7 6.98 7 8 C6.34 8 5.68 8 5 8 C5 8.66 5 9.32 5 10 C4.01 9.67 3.02 9.34 2 9 C1.6278958 7.67696283 1.29369827 6.34262065 1 5 C0.34 4.67 -0.32 4.34 -1 4 C-0.67 2.68 -0.34 1.36 0 0 Z " fill="#E3FB52" transform="translate(64,95)"/>
<path d="M0 0 C0.66 0.33 1.32 0.66 2 1 C1.01 1.33 0.02 1.66 -1 2 C-1 2.66 -1 3.32 -1 4 C0.65 4.33 2.3 4.66 4 5 C3.01 5.495 3.01 5.495 2 6 C2 12.93 2 19.86 2 27 C1.67 27 1.34 27 1 27 C0.67 20.4 0.34 13.8 0 7 C-0.99 6.67 -1.98 6.34 -3 6 C-3 4.35 -3 2.7 -3 1 C-2.01 0.67 -1.02 0.34 0 0 Z " fill="#E4FE5F" transform="translate(99,134)"/>
<path d="M0 0 C5.75 1.75 5.75 1.75 8 4 C5.56589617 7.34689277 2.69702248 7.6854485 -1.16015625 8.375 C-3.38935118 8.92382793 -3.38935118 8.92382793 -5 12 C-6.32 12 -7.64 12 -9 12 C-9 11.34 -9 10.68 -9 10 C-8.14535156 9.59007813 -7.29070312 9.18015625 -6.41015625 8.7578125 C-5.30542969 8.21898438 -4.20070313 7.68015625 -3.0625 7.125 C-1.96035156 6.59132813 -0.85820313 6.05765625 0.27734375 5.5078125 C3.09404511 4.28340155 3.09404511 4.28340155 4 2 C2.68 1.67 1.36 1.34 0 1 C0 0.67 0 0.34 0 0 Z " fill="#303511" transform="translate(123,103)"/>
<path d="M0 0 C0.99 0.66 1.98 1.32 3 2 C1.3970947 2.81498562 -0.20737278 3.62689927 -1.8125 4.4375 C-2.70582031 4.88996094 -3.59914063 5.34242188 -4.51953125 5.80859375 C-7 7 -7 7 -10 8 C-10 13.94 -10 19.88 -10 26 C-10.33 26 -10.66 26 -11 26 C-11 19.4 -11 12.8 -11 6 C-7.37 4.02 -3.74 2.04 0 0 Z " fill="#D0E264" transform="translate(112,134)"/>
<path d="M0 0 C-0.20625 0.556875 -0.4125 1.11375 -0.625 1.6875 C-1.10695211 4.659538 -0.26565028 6.31979941 1 9 C-4.75 9.125 -4.75 9.125 -7 8 C-7 7.01 -7 6.02 -7 5 C-6.34 5 -5.68 5 -5 5 C-4.87625 4.360625 -4.7525 3.72125 -4.625 3.0625 C-4.41875 2.381875 -4.2125 1.70125 -4 1 C-2 0 -2 0 0 0 Z " fill="#1D170A" transform="translate(143,121)"/>
<path d="M0 0 C1.65 0 3.3 0 5 0 C2.39158815 2.93446333 -0.63806602 4.75591171 -4 6.75 C-5.051875 7.38421875 -6.10375 8.0184375 -7.1875 8.671875 C-10 10 -10 10 -13 9 C-11.75 7.5 -11.75 7.5 -10 6 C-8.68 6 -7.36 6 -6 6 C-5.67 5.01 -5.34 4.02 -5 3 C-3.35 2.67 -1.7 2.34 0 2 C0 1.34 0 0.68 0 0 Z " fill="#D9EC6B" transform="translate(63,71)"/>
<path d="M0 0 C0 0.66 0 1.32 0 2 C1.65 2.33 3.3 2.66 5 3 C5 3.99 5 4.98 5 6 C3.35 6.33 1.7 6.66 0 7 C-0.33 5.68 -0.66 4.36 -1 3 C-6.55493924 1.97296252 -6.55493924 1.97296252 -12 3 C-8.30922209 -1.2443946 -5.30849083 -1.32712271 0 0 Z " fill="#BCD360" transform="translate(141,113)"/>
<path d="M0 0 C1.65 0 3.3 0 5 0 C4.67 0.99 4.34 1.98 4 3 C5.32 3.66 6.64 4.32 8 5 C6.02 6.32 4.04 7.64 2 9 C1.34 8.67 0.68 8.34 0 8 C0.33 6.68 0.66 5.36 1 4 C0.34 3.67 -0.32 3.34 -1 3 C-0.67 2.01 -0.34 1.02 0 0 Z " fill="#242610" transform="translate(107,119)"/>
<path d="M0 0 C0 0.66 0 1.32 0 2 C-0.99 2 -1.98 2 -3 2 C-3 2.99 -3 3.98 -3 5 C-5.31 5 -7.62 5 -10 5 C-10 2 -10 2 -8.9375 0.25 C-5.90310914 -1.70767152 -3.39923923 -0.70550248 0 0 Z " fill="#DFFC4E" transform="translate(157,175)"/>
<path d="M0 0 C6.435 2.97 6.435 2.97 13 6 C13 6.66 13 7.32 13 8 C13.969375 8.12375 14.93875 8.2475 15.9375 8.375 C16.948125 8.58125 17.95875 8.7875 19 9 C19.33 9.66 19.66 10.32 20 11 C9.44191344 7.92482916 9.44191344 7.92482916 5 6 C5 5.34 5 4.68 5 4 C4.360625 3.896875 3.72125 3.79375 3.0625 3.6875 C2.381875 3.460625 1.70125 3.23375 1 3 C0.67 2.01 0.34 1.02 0 0 Z " fill="#BAD657" transform="translate(104,161)"/>
<path d="M0 0 C4.84659077 0.59104765 8.60748167 1.97944157 13 4 C13 4.66 13 5.32 13 6 C13.99 6 14.98 6 16 6 C15.67 6.99 15.34 7.98 15 9 C11.7 7.35 8.4 5.7 5 4 C5 3.34 5 2.68 5 2 C3.35 1.67 1.7 1.34 0 1 C0 0.67 0 0.34 0 0 Z " fill="#BFD55A" transform="translate(102,58)"/>
<path d="M0 0 C2.31 0 4.62 0 7 0 C7 0.66 7 1.32 7 2 C7.928125 2.28875 8.85625 2.5775 9.8125 2.875 C13 4 13 4 16 6 C15.67 6.99 15.34 7.98 15 9 C14.01 8.67 13.02 8.34 12 8 C12 7.34 12 6.68 12 6 C10.35 5.67 8.7 5.34 7 5 C7 4.34 7 3.68 7 3 C5.02 3 3.04 3 1 3 C0.67 2.01 0.34 1.02 0 0 Z " fill="#D5EA65" transform="translate(133,31)"/>
<path d="M0 0 C2.97 1.65 5.94 3.3 9 5 C4.375 9 4.375 9 1 9 C1.020625 8.071875 1.04125 7.14375 1.0625 6.1875 C1.15769604 2.97713989 1.15769604 2.97713989 0 0 Z " fill="#2D2D0F" transform="translate(34,132)"/>
<path d="M0 0 C0 0.99 0 1.98 0 3 C-0.80824219 3.39832031 -1.61648437 3.79664063 -2.44921875 4.20703125 C-5.39595584 5.83943255 -5.39595584 5.83943255 -5.70703125 9.57421875 C-5.76660733 10.94446863 -5.80097482 12.31600403 -5.8125 13.6875 C-5.83763672 14.38939453 -5.86277344 15.09128906 -5.88867188 15.81445312 C-5.94744448 17.54236781 -5.9766097 19.2712443 -6 21 C-6.33 21 -6.66 21 -7 21 C-7.13481759 18.06097651 -7.23399416 15.12810441 -7.3125 12.1875 C-7.35439453 11.35412109 -7.39628906 10.52074219 -7.43945312 9.66210938 C-7.48605207 7.34148205 -7.47548292 5.2730263 -7 3 C-4.56744499 0.89284386 -3.22424768 0 0 0 Z " fill="#585E25" transform="translate(109,139)"/>
<path d="M0 0 C-1.55666955 0.9884096 -3.12062426 1.96535082 -4.6875 2.9375 C-5.55761719 3.48277344 -6.42773438 4.02804688 -7.32421875 4.58984375 C-9.94624689 5.97167172 -12.08310075 6.58480173 -15 7 C-14.67 6.01 -14.34 5.02 -14 4 C-12.68 4 -11.36 4 -10 4 C-10 3.34 -10 2.68 -10 2 C-9.34 2 -8.68 2 -8 2 C-8 1.34 -8 0.68 -8 0 C-4.90645403 -0.99435406 -3.09720845 -0.87840996 0 0 Z " fill="#D2EA69" transform="translate(180,98)"/>
<path d="M0 0 C0.99 0.33 1.98 0.66 3 1 C3 1.66 3 2.32 3 3 C3.66 3.33 4.32 3.66 5 4 C4.34 4 3.68 4 3 4 C3.33 6.64 3.66 9.28 4 12 C2.68 11.67 1.36 11.34 0 11 C0 7.37 0 3.74 0 0 Z " fill="#BACF6E" transform="translate(111,75)"/>
<path d="M0 0 C-8.26947315 5.5321244 -8.26947315 5.5321244 -13.5625 4.8125 C-14.696875 4.544375 -15.83125 4.27625 -17 4 C-17 3.34 -17 2.68 -17 2 C-13.7 2 -10.4 2 -7 2 C-7 1.34 -7 0.68 -7 0 C-3.86650268 -1.04449911 -3.01031744 -0.93423645 0 0 Z " fill="#CBE25E" transform="translate(89,151)"/>
<path d="M0 0 C4.75 0.875 4.75 0.875 7 2 C7 8.93 7 15.86 7 23 C6.67 23 6.34 23 6 23 C6 16.73 6 10.46 6 4 C4.68 3.67 3.36 3.34 2 3 C2 2.34 2 1.68 2 1 C1.34 0.67 0.68 0.34 0 0 Z " fill="#E6FC69" transform="translate(87,70)"/>
<path d="M0 0 C0.99 0.33 1.98 0.66 3 1 C-1.8665458 4.34169478 -6.63324933 7.52303815 -12 10 C-12 9.01 -12 8.02 -12 7 C-11.34 7 -10.68 7 -10 7 C-10 6.34 -10 5.68 -10 5 C-6.535 4.505 -6.535 4.505 -3 4 C-3 3.34 -3 2.68 -3 2 C-2.01 1.34 -1.02 0.68 0 0 Z " fill="#D4E661" transform="translate(167,57)"/>
<path d="M0 0 C0.99 0.33 1.98 0.66 3 1 C3 1.66 3 2.32 3 3 C4.175625 3.185625 4.175625 3.185625 5.375 3.375 C8 4 8 4 10 6 C9.01 6 8.02 6 7 6 C7 7.32 7 8.64 7 10 C6.34 10 5.68 10 5 10 C5 8.35 5 6.7 5 5 C2.03 4.505 2.03 4.505 -1 4 C-0.67 2.68 -0.34 1.36 0 0 Z " fill="#31360F" transform="translate(96,168)"/>
<path d="M0 0 C0.99 0.33 1.98 0.66 3 1 C3 1.66 3 2.32 3 3 C3.53625 3.103125 4.0725 3.20625 4.625 3.3125 C7.62502044 4.18092697 10.2379535 5.55620296 13 7 C13 7.33 13 7.66 13 8 C8.35593314 8.4221879 5.0501112 7.25871586 1 5 C0.0625 2.3125 0.0625 2.3125 0 0 Z " fill="#D1E464" transform="translate(157,33)"/>
<path d="M0 0 C1.32 0.33 2.64 0.66 4 1 C3.67 8.59 3.34 16.18 3 24 C2.67 24 2.34 24 2 24 C2 17.07 2 10.14 2 3 C1.34 3 0.68 3 0 3 C0 2.01 0 1.02 0 0 Z " fill="#D7EE64" transform="translate(176,112)"/>
<path d="M0 0 C-0.8125 2.9375 -0.8125 2.9375 -2 6 C-5.13349732 7.04449911 -5.98968256 6.93423645 -9 6 C-9 5.34 -9 4.68 -9 4 C-2.25 0 -2.25 0 0 0 Z " fill="#C4DB56" transform="translate(47,73)"/>
<path d="M0 0 C0.33 1.65 0.66 3.3 1 5 C-2.45925163 3.7508258 -5.14693203 2.32472205 -8 0 C-4.71023192 -1.09658936 -3.28696233 -0.79953138 0 0 Z " fill="#33390E" transform="translate(56,128)"/>
<path d="M0 0 C0 0.66 0 1.32 0 2 C0.99 2.33 1.98 2.66 3 3 C1.21089097 3.52955234 -0.58139148 4.0483937 -2.375 4.5625 C-3.87160156 4.99755859 -3.87160156 4.99755859 -5.3984375 5.44140625 C-8 6 -8 6 -10 5 C-8.71186658 4.16121545 -7.41936744 3.32913217 -6.125 2.5 C-5.40570313 2.0359375 -4.68640625 1.571875 -3.9453125 1.09375 C-2 0 -2 0 0 0 Z " fill="#BCD355" transform="translate(156,123)"/>
<path d="M0 0 C0.33 0.99 0.66 1.98 1 3 C0.01 3 -0.98 3 -2 3 C-2 3.66 -2 4.32 -2 5 C-4.97 5.66 -7.94 6.32 -11 7 C-8.42355713 4.42355713 -6.96726521 3.31230641 -3.8125 1.8125 C-2.73935547 1.29623047 -2.73935547 1.29623047 -1.64453125 0.76953125 C-1.10183594 0.51558594 -0.55914062 0.26164062 0 0 Z " fill="#B0C652" transform="translate(58,66)"/>
<path d="M0 0 C1.79398267 0.95399078 3.58511655 1.91334026 5.375 2.875 C6.37273437 3.40867188 7.37046875 3.94234375 8.3984375 4.4921875 C11 6 11 6 13 8 C9.17840713 7.32560126 5.55473882 6.57988392 2 5 C0.82421875 2.421875 0.82421875 2.421875 0 0 Z " fill="#D6E765" transform="translate(118,56)"/>
<path d="M0 0 C0.99 0.33 1.98 0.66 3 1 C2.01 1.495 2.01 1.495 1 2 C1 4.31 1 6.62 1 9 C0.01 8.67 -0.98 8.34 -2 8 C-1.67 7.34 -1.34 6.68 -1 6 C-2.98 6 -4.96 6 -7 6 C-7 5.34 -7 4.68 -7 4 C-5.824375 3.8453125 -5.824375 3.8453125 -4.625 3.6875 C-1.66954819 3.22404978 -1.66954819 3.22404978 0 0 Z " fill="#121307" transform="translate(120,111)"/>
<path d="M0 0 C3.465 1.485 3.465 1.485 7 3 C6.67 3.99 6.34 4.98 6 6 C3.4375 7.1875 3.4375 7.1875 1 8 C0.67 7.01 0.34 6.02 0 5 C0.99 5 1.98 5 3 5 C3 4.34 3 3.68 3 3 C2.01 3 1.02 3 0 3 C0 2.01 0 1.02 0 0 Z " fill="#CAD963" transform="translate(120,102)"/>
<path d="M0 0 C2.49361571 1.20381448 4.68143083 2.45428722 7 4 C4.36 4.66 1.72 5.32 -1 6 C-1.33 4.68 -1.66 3.36 -2 2 C-1.34 1.34 -0.68 0.68 0 0 Z " fill="#DBFC43" transform="translate(149,99)"/>
<path d="M0 0 C0.66 0.99 1.32 1.98 2 3 C-6.42857143 6.28571429 -6.42857143 6.28571429 -11 7 C-8.60490662 4.10067643 -6.68754757 3.49831724 -3 3 C-3 2.34 -3 1.68 -3 1 C-2.01 0.67 -1.02 0.34 0 0 Z " fill="#C0D45A" transform="translate(95,135)"/>
<path d="M0 0 C2.97 0.33 5.94 0.66 9 1 C9.33 2.32 9.66 3.64 10 5 C4.25 4.125 4.25 4.125 2 3 C2 2.34 2 1.68 2 1 C1.34 0.67 0.68 0.34 0 0 Z " fill="#DDF063" transform="translate(131,96)"/>
<path d="M0 0 C0 0.66 0 1.32 0 2 C-0.99 2.495 -0.99 2.495 -2 3 C-2 3.66 -2 4.32 -2 5 C-3.65 5.66 -5.3 6.32 -7 7 C-7.66 6.34 -8.32 5.68 -9 5 C-8.34 5 -7.68 5 -7 5 C-7 4.34 -7 3.68 -7 3 C-2.61538462 0 -2.61538462 0 0 0 Z " fill="#404815" transform="translate(145,186)"/>
<path d="M0 0 C2.97 0.33 5.94 0.66 9 1 C9 1.66 9 2.32 9 3 C9.66 3.33 10.32 3.66 11 4 C11 4.66 11 5.32 11 6 C9.68 5.67 8.36 5.34 7 5 C7 4.34 7 3.68 7 3 C6.030625 2.87625 5.06125 2.7525 4.0625 2.625 C3.051875 2.41875 2.04125 2.2125 1 2 C0.67 1.34 0.34 0.68 0 0 Z " fill="#C3D856" transform="translate(123,183)"/>
<path d="M0 0 C0.66 0.66 1.32 1.32 2 2 C1.34 2 0.68 2 0 2 C0 2.66 0 3.32 0 4 C-3.96 5.98 -3.96 5.98 -8 8 C-8.33 7.01 -8.66 6.02 -9 5 C-7.35 5 -5.7 5 -4 5 C-4 4.01 -4 3.02 -4 2 C-2.68 1.34 -1.36 0.68 0 0 Z " fill="#CBE260" transform="translate(158,175)"/>
<path d="M0 0 C4.21878192 -0.19622241 7.17010894 0.19769832 11 2 C11 2.66 11 3.32 11 4 C11.66 4.33 12.32 4.66 13 5 C12.01 5.495 12.01 5.495 11 6 C9.16015625 5.29296875 9.16015625 5.29296875 7.0625 4.1875 C6.37285156 3.83042969 5.68320313 3.47335938 4.97265625 3.10546875 C3.26786394 2.15010989 1.6260203 1.08401354 0 0 Z " fill="#C1D35C" transform="translate(115,134)"/>
<path d="M0 0 C0.66 0.33 1.32 0.66 2 1 C1.21625 1.2475 0.4325 1.495 -0.375 1.75 C-3.32317108 3.15389099 -3.9024777 4.00675737 -5 7 C-6.65 7 -8.3 7 -10 7 C-10 6.34 -10 5.68 -10 5 C-8.38007835 4.13624104 -6.75388139 3.28424146 -5.125 2.4375 C-4.22007813 1.96183594 -3.31515625 1.48617187 -2.3828125 0.99609375 C-1.20332031 0.50302734 -1.20332031 0.50302734 0 0 Z " fill="#BAC955" transform="translate(107,128)"/>
<path d="M0 0 C0.33 0.99 0.66 1.98 1 3 C-5.435 4.98 -5.435 4.98 -12 7 C-12 6.34 -12 5.68 -12 5 C-9.09399739 3.74335022 -7.20395416 3 -4 3 C-4 2.34 -4 1.68 -4 1 C-2 0 -2 0 0 0 Z " fill="#B8C85B" transform="translate(155,56)"/>
<path d="M0 0 C0.99 0.33 1.98 0.66 3 1 C2.67 2.65 2.34 4.3 2 6 C0.02 5.34 -1.96 4.68 -4 4 C-2.68 2.68 -1.36 1.36 0 0 Z " fill="#24280A" transform="translate(112,46)"/>
<path d="M0 0 C0.99 0.66 1.98 1.32 3 2 C-4.28571429 6.57142857 -4.28571429 6.57142857 -9 6 C-7.71502463 3.43004926 -6.50087627 3.09565537 -3.9375 1.875 C-3.20402344 1.52179687 -2.47054687 1.16859375 -1.71484375 0.8046875 C-1.14894531 0.53914063 -0.58304688 0.27359375 0 0 Z " fill="#B3C855" transform="translate(132,23)"/>
<path d="M0 0 C-0.625 1.875 -0.625 1.875 -2 4 C-5.125 5.25 -5.125 5.25 -8 6 C-7.8125 4.125 -7.8125 4.125 -7 2 C-4.55683729 0.74709605 -2.75474605 0 0 0 Z " fill="#373C10" transform="translate(155,181)"/>
<path d="M0 0 C-1.14099526 3.42298577 -2.00085621 4.14758766 -5 6 C-5.99 6 -6.98 6 -8 6 C-7.8125 4.125 -7.8125 4.125 -7 2 C-4.55683729 0.74709605 -2.75474605 0 0 0 Z " fill="#323C0F" transform="translate(117,135)"/>
<path d="M0 0 C-0.61875 0.2475 -1.2375 0.495 -1.875 0.75 C-4.35068687 2.20628639 -4.95125002 3.37812506 -6 6 C-8.31 6 -10.62 6 -13 6 C-9.24201894 1.84644198 -5.71575712 -0.48992204 0 0 Z " fill="#4C4B1C" transform="translate(80,67)"/>
<path d="M0 0 C0.33 0 0.66 0 1 0 C1 3.96 1 7.92 1 12 C-0.32 11.67 -1.64 11.34 -3 11 C-2.690625 10.29875 -2.38125 9.5975 -2.0625 8.875 C-0.96697322 5.91063343 -0.43577008 3.12301892 0 0 Z " fill="#383709" transform="translate(130,164)"/>
<path d="M0 0 C2.1875 0.3125 2.1875 0.3125 4 1 C3.34 1 2.68 1 2 1 C2 1.66 2 2.32 2 3 C2.66 3.33 3.32 3.66 4 4 C3.67 4.99 3.34 5.98 3 7 C1.02 5.68 -0.96 4.36 -3 3 C-1.75 1.4375 -1.75 1.4375 0 0 Z " fill="#D0E257" transform="translate(63,99)"/>
<path d="M0 0 C1.65 0 3.3 0 5 0 C5.66 1.32 6.32 2.64 7 4 C7.66 4 8.32 4 9 4 C9 4.66 9 5.32 9 6 C7.68 5.67 6.36 5.34 5 5 C5 4.34 5 3.68 5 3 C3.35 2.67 1.7 2.34 0 2 C0 1.34 0 0.68 0 0 Z " fill="#C3D557" transform="translate(80,67)"/>
<path d="M0 0 C0.66 0 1.32 0 2 0 C2 0.66 2 1.32 2 2 C3.65 2.33 5.3 2.66 7 3 C7.33 3.99 7.66 4.98 8 6 C3.25 5.125 3.25 5.125 1 4 C0.375 1.9375 0.375 1.9375 0 0 Z " fill="#C5DE5D" transform="translate(114,85)"/>
<path d="M0 0 C0.33 1.32 0.66 2.64 1 4 C-0.65 4.33 -2.3 4.66 -4 5 C-4 5.66 -4 6.32 -4 7 C-5.32 7.33 -6.64 7.66 -8 8 C-7.375 6.0625 -7.375 6.0625 -6 4 C-2.875 3.25 -2.875 3.25 0 3 C0 2.01 0 1.02 0 0 Z " fill="#DCED71" transform="translate(179,162)"/>
<path d="M0 0 C2.92879371 0.62759865 5.36095629 1.58622659 8 3 C7.67 3.99 7.34 4.98 7 6 C6.01 5.67 5.02 5.34 4 5 C4 4.34 4 3.68 4 3 C2.68 2.34 1.36 1.68 0 1 C0 0.67 0 0.34 0 0 Z " fill="#CBE15E" transform="translate(108,173)"/>
<path d="M0 0 C4.3890815 0.51035831 7.33708062 1.52214277 11 4 C10.67 4.66 10.34 5.32 10 6 C6.7 4.35 3.4 2.7 0 1 C0 0.67 0 0.34 0 0 Z " fill="#C3D360" transform="translate(55,144)"/>
<path d="M0 0 C-6.4 4.06153846 -6.4 4.06153846 -9.4375 3.75 C-9.953125 3.5025 -10.46875 3.255 -11 3 C-10.34 3 -9.68 3 -9 3 C-9 2.34 -9 1.68 -9 1 C-3.375 -1.125 -3.375 -1.125 0 0 Z " fill="#D7EE66" transform="translate(137,123)"/>
<path d="M0 0 C0.66 0.33 1.32 0.66 2 1 C2.33 1.99 2.66 2.98 3 4 C4.99665314 5.68538601 4.99665314 5.68538601 7 7 C4.36 6.67 1.72 6.34 -1 6 C-0.67 4.02 -0.34 2.04 0 0 Z " fill="#B6C854" transform="translate(167,104)"/>
<path d="M0 0 C0.66 0 1.32 0 2 0 C2 0.66 2 1.32 2 2 C2.66 2.33 3.32 2.66 4 3 C2.125 4.0625 2.125 4.0625 0 5 C-0.66 4.67 -1.32 4.34 -2 4 C-2.99 4 -3.98 4 -5 4 C-5 3.34 -5 2.68 -5 2 C-3.35 2 -1.7 2 0 2 C0 1.34 0 0.68 0 0 Z " fill="#2A270E" transform="translate(81,93)"/>
<path d="M0 0 C0.33 0.66 0.66 1.32 1 2 C2.98 2 4.96 2 7 2 C6.67 2.66 6.34 3.32 6 4 C3.36 4 0.72 4 -2 4 C-1.34 2.68 -0.68 1.36 0 0 Z " fill="#0E0E06" transform="translate(76,51)"/>
<path d="M0 0 C1.32 0.33 2.64 0.66 4 1 C-1.14285714 5.42857143 -1.14285714 5.42857143 -5 6 C-5 5.01 -5 4.02 -5 3 C-3.35 3 -1.7 3 0 3 C0 2.01 0 1.02 0 0 Z " fill="#C5DB64" transform="translate(121,38)"/>
<path d="M0 0 C0 0.99 0 1.98 0 3 C0.99 3.33 1.98 3.66 3 4 C3 4.66 3 5.32 3 6 C0.03 5.505 0.03 5.505 -3 5 C-3.33 4.01 -3.66 3.02 -4 2 C-2.68 1.34 -1.36 0.68 0 0 Z " fill="#DFF661" transform="translate(120,175)"/>
<path d="M0 0 C2.31 0.33 4.62 0.66 7 1 C7 1.99 7 2.98 7 4 C7.66 4 8.32 4 9 4 C8.67 4.66 8.34 5.32 8 6 C7.01 5.67 6.02 5.34 5 5 C5 4.34 5 3.68 5 3 C2.525 2.01 2.525 2.01 0 1 C0 0.67 0 0.34 0 0 Z " fill="#99AE45" transform="translate(124,93)"/>
<path d="M0 0 C5.625 -0.25 5.625 -0.25 9 2 C8.67 2.99 8.34 3.98 8 5 C7.01 4.67 6.02 4.34 5 4 C5 3.34 5 2.68 5 2 C3.35 1.67 1.7 1.34 0 1 C0 0.67 0 0.34 0 0 Z " fill="#BACC5A" transform="translate(140,35)"/>
<path d="M0 0 C3.0831351 1.19899698 6.06279492 2.47700477 9 4 C7 5 7 5 3 5 C3 4.34 3 3.68 3 3 C1.68 2.67 0.36 2.34 -1 2 C-0.67 1.34 -0.34 0.68 0 0 Z " fill="#CEE567" transform="translate(145,27)"/>
<path d="M0 0 C1.32 0.33 2.64 0.66 4 1 C4 1.66 4 2.32 4 3 C5.32 3.66 6.64 4.32 8 5 C6.68 5.33 5.36 5.66 4 6 C3.34 4.68 2.68 3.36 2 2 C1.34 2 0.68 2 0 2 C0 1.34 0 0.68 0 0 Z " fill="#4A4D17" transform="translate(64,149)"/>
<path d="M0 0 C3.37462715 0.54723683 5.08235 1.0549 8 3 C8 3.66 8 4.32 8 5 C4.62496331 3.8141763 2.35277269 2.72426311 0 0 Z " fill="#C7D75F" transform="translate(34,131)"/>
<path d="M0 0 C2.64 0.33 5.28 0.66 8 1 C8 1.99 8 2.98 8 4 C4.31245243 3.50168276 2.39509338 2.89932357 0 0 Z " fill="#BBD554" transform="translate(49,95)"/>
<path d="M0 0 C2.92879371 0.62759865 5.36095629 1.58622659 8 3 C8 3.66 8 4.32 8 5 C5.07120629 4.37240135 2.63904371 3.41377341 0 2 C0 1.34 0 0.68 0 0 Z " fill="#DDEC6D" transform="translate(141,93)"/>
<path d="M0 0 C0.66 0 1.32 0 2 0 C2 3.96 2 7.92 2 12 C0.68 11.01 -0.64 10.02 -2 9 C-1.34 8.67 -0.68 8.34 0 8 C0 5.36 0 2.72 0 0 Z " fill="#32310A" transform="translate(129,74)"/>
<path d="M0 0 C0.99 0.33 1.98 0.66 3 1 C3 1.66 3 2.32 3 3 C3.66 3 4.32 3 5 3 C5 3.66 5 4.32 5 5 C2.03 4.505 2.03 4.505 -1 4 C-0.67 2.68 -0.34 1.36 0 0 Z " fill="#2F2907" transform="translate(96,168)"/>
<path d="M0 0 C0.66 0.33 1.32 0.66 2 1 C0.68 2.32 -0.64 3.64 -2 5 C-4.475 4.01 -4.475 4.01 -7 3 C-6.67 2.34 -6.34 1.68 -6 1 C-4.7934375 1.0309375 -4.7934375 1.0309375 -3.5625 1.0625 C-1.06645115 1.29633621 -1.06645115 1.29633621 0 0 Z " fill="#4F5A1A" transform="translate(81,154)"/>
<path d="M0 0 C-0.33 0.99 -0.66 1.98 -1 3 C-3.31 3.33 -5.62 3.66 -8 4 C-3.375 0 -3.375 0 0 0 Z " fill="#424015" transform="translate(170,127)"/>
<path d="M0 0 C0.33 0 0.66 0 1 0 C1 2.31 1 4.62 1 7 C2.98 7.495 2.98 7.495 5 8 C3.02 8.99 3.02 8.99 1 10 C-0.60725635 6.78548731 -0.05748185 3.56387464 0 0 Z " fill="#D6EE5E" transform="translate(114,103)"/>
<path d="M0 0 C0.66 0 1.32 0 2 0 C2 0.99 2 1.98 2 3 C-0.31 3.66 -2.62 4.32 -5 5 C-4.67 4.01 -4.34 3.02 -4 2 C-2.68 2 -1.36 2 0 2 C0 1.34 0 0.68 0 0 Z " fill="#DAF063" transform="translate(170,100)"/>
</svg>
